<svg version="1.1" xmlns="http://www.w3.org/2000/svg" xmlns:xlink="http://www.w3.org/1999/xlink" width="122.75294" height="133.3962" viewBox="0,0,122.75294,133.3962"><g transform="translate(-86.14625,-116.91323)"><g data-paper-data="{&quot;isPaintingLayer&quot;:true}" fill-rule="nonzero" stroke="#000000" stroke-width="2" stroke-linecap="butt" stroke-linejoin="miter" stroke-miterlimit="10" stroke-dasharray="" stroke-dashoffset="0" style="mix-blend-mode: normal"><path d="M157.0409,154.61726c-10.77472,1.37105 -20.55488,-5.73396 -21.84461,-15.86947c-1.28974,-10.13555 6.39938,-19.46349 17.17408,-20.83456c10.77472,-1.37105 20.55488,5.73396 21.84461,15.86947c1.28974,10.13555 -6.39938,19.46349 -17.17408,20.83456z" fill="#b5e6ff"/><path d="M192.49366,182.36402c-8.76587,1.11543 -16.71974,-4.64234 -17.7655,-12.86034c-1.04572,-8.21801 5.21269,-15.78427 13.97857,-16.89971c8.76587,-1.11543 16.71974,4.64234 17.7655,12.86034c1.04572,8.21801 -5.21269,15.78427 -13.97857,16.89971z" fill="#6ca9c7"/><path d="M195.6599,217.24333c-7.631,0.97104 -14.52361,-3.79346 -15.39502,-10.64179c-0.87145,-6.84834 4.60827,-13.18719 12.23929,-14.15823c7.631,-0.97104 14.52361,3.79346 15.39502,10.64179c0.87145,6.84834 -4.60827,13.18719 -12.23929,14.15823z" fill="#2d6b89"/><path d="M173.28939,247.97968c-6.57442,0.83657 -12.52569,-3.3707 -13.29255,-9.39723c-0.76687,-6.02653 3.94109,-11.59019 10.51548,-12.42678c6.57442,-0.83657 12.52569,3.3707 13.29255,9.39723c0.76687,6.02653 -3.94109,11.59019 -10.51548,12.42678z" fill="#006192"/><path d="M134.30384,249.2443c-4.65687,0.59258 -8.94064,-2.92425 -9.5681,-7.85506c-0.62742,-4.93079 2.63908,-9.40837 7.29592,-10.00098c4.65687,-0.59258 8.94064,2.92425 9.5681,7.85506c0.62742,4.93079 -2.63908,9.40837 -7.29592,10.00098z" fill="#004b70"/><path d="M103.87101,229.25933c-4.10902,0.52286 -7.86387,-2.38427 -8.38675,-6.49328c-0.52286,-4.10902 2.38427,-7.86387 6.49328,-8.38675c4.10902,-0.52286 7.86387,2.38427 8.38675,6.49328c0.52286,4.10902 -2.38427,7.86387 -6.49328,8.38675z" fill="#002030"/><path d="M92.92378,196.04216c-2.83065,0.3602 -5.41734,-1.64249 -5.77753,-4.47315c-0.3602,-2.83065 1.64249,-5.41734 4.47315,-5.77753c2.83065,-0.3602 5.41734,1.64249 5.77753,4.47315c0.3602,2.83065 -1.64249,5.41734 -4.47315,5.77753z" fill="#000000"/></g></g></svg>