<svg version="1.1" xmlns="http://www.w3.org/2000/svg" xmlns:xlink="http://www.w3.org/1999/xlink" width="124.82317" height="128.33775" viewBox="0,0,124.82317,128.33775"><g transform="translate(-86.30637,-120.50409)"><g data-paper-data="{&quot;isPaintingLayer&quot;:true}" fill-rule="nonzero" stroke="#000000" stroke-width="2" stroke-linecap="butt" stroke-linejoin="miter" stroke-miterlimit="10" stroke-dasharray="" stroke-dashoffset="0" style="mix-blend-mode: normal"><path d="M174.92166,211.64614c4.96433,-9.66073 16.35569,-13.70667 25.44332,-9.03686c9.08766,4.66982 12.43026,16.28705 7.46596,25.94778c-4.96433,9.66073 -16.35569,13.70667 -25.44332,9.03686c-9.08766,-4.66982 -12.43026,-16.28705 -7.46596,-25.94778z" fill="#b5e6ff"/><path d="M131.98625,225.18609c4.03877,-7.85958 13.28608,-11.1616 20.65445,-7.37527c7.36836,3.78635 10.06754,13.22725 6.02877,21.08683c-4.03877,7.85958 -13.28608,11.1616 -20.65445,7.37527c-7.36836,-3.78635 -10.06754,-13.22725 -6.02877,-21.08683z" fill="#6ca9c7"/><path d="M101.43262,208.06687c3.51589,-6.84205 11.34378,-9.83077 17.48407,-6.67546c6.14031,3.15529 8.2678,11.25973 4.75191,18.10179c-3.51589,6.84205 -11.34378,9.83077 -17.48407,6.67546c-6.14031,-3.15529 -8.2678,-11.25973 -4.75191,-18.10179z" fill="#2d6b89"/><path d="M88.7408,172.23279c3.02909,-5.8947 9.865,-8.42236 15.26846,-5.64571c5.40346,2.77665 7.32828,9.80617 4.29921,15.70085c-3.02909,5.8947 -9.865,8.42236 -15.26846,5.64571c-5.40346,-2.77665 -7.32828,-9.80617 -4.29921,-15.70085z" fill="#006192"/><path d="M109.75092,139.36873c2.14559,-4.1754 7.46889,-5.71857 11.88991,-3.44678c4.421,2.27181 6.2656,7.4983 4.12003,11.67371c-2.14559,4.1754 -7.46889,5.71857 -11.88991,3.44678c-4.421,-2.27181 -6.2656,-7.4983 -4.12003,-11.67371z" fill="#004b70"/><path d="M143.44611,125.57779c1.89319,-3.68419 6.41451,-5.13608 10.09869,-3.24292c3.68419,1.89319 5.13608,6.41451 3.24292,10.09869c-1.89319,3.68419 -6.41451,5.13608 -10.09869,3.24292c-3.68419,-1.89319 -5.13608,-6.41451 -3.24292,-10.09869z" fill="#002030"/><path d="M177.03056,135.34032c1.30418,-2.53799 4.41887,-3.5382 6.95688,-2.23401c2.53799,1.30418 3.5382,4.41887 2.23401,6.95688c-1.30418,2.53799 -4.41887,3.5382 -6.95688,2.23401c-2.53799,-1.30418 -3.5382,-4.41887 -2.23401,-6.95688z" fill="#000000"/></g></g></svg>