<svg version="1.1" xmlns="http://www.w3.org/2000/svg" xmlns:xlink="http://www.w3.org/1999/xlink" width="135.70956" height="123.05748" viewBox="0,0,135.70956,123.05748"><g transform="translate(-80.80201,-127.20375)"><g stroke="#000000" stroke-width="2" stroke-miterlimit="10"><path d="M118.1556,186.07194c3.05385,10.42345 -2.41914,21.20211 -12.22425,24.07479c-9.80512,2.87269 -20.22936,-3.24842 -23.28321,-13.67188c-3.05385,-10.42345 2.41914,-21.20211 12.22425,-24.07479c9.80512,-2.87269 20.22936,3.24842 23.28321,13.67188z" fill="#b5e6ff"/><path d="M139.96135,146.68555c2.48449,8.4801 -1.94627,17.24277 -9.89636,19.57197c-7.95009,2.3292 -16.40899,-2.65708 -18.89347,-11.13718c-2.48449,-8.4801 1.94627,-17.24277 9.89636,-19.57197c7.95009,-2.3292 16.40899,2.65708 18.89347,11.13718z" fill="#6ca9c7"/><path d="M173.90429,138.05596c2.16283,7.38223 -1.45453,14.9402 -8.07961,16.8812c-6.62508,1.941 -13.74908,-2.46998 -15.91192,-9.85221c-2.16283,-7.38223 1.45453,-14.9402 8.07961,-16.8812c6.62508,-1.941 13.74908,2.46998 15.91192,9.85221z" fill="#2d6b89"/><path d="M207.78514,155.29694c1.86336,6.36008 -1.35229,12.90061 -7.18235,14.60869c-5.83007,1.70808 -12.06682,-2.0631 -13.93019,-8.42317c-1.86336,-6.36008 1.35229,-12.90061 7.18235,-14.60869c5.83007,-1.70808 12.06682,2.0631 13.93019,8.42317z" fill="#006192"/><path d="M215.18476,193.59469c1.31988,4.50505 -1.47704,9.29003 -6.24709,10.68756c-4.77005,1.39752 -9.70692,-1.12163 -11.02681,-5.62668c-1.31988,-4.50505 1.47704,-9.29003 6.24709,-10.68756c4.77005,-1.39752 9.70692,1.12163 11.02681,5.62668z" fill="#004b70"/><path d="M200.25154,226.79943c1.1646,3.97505 -1.11371,8.14155 -5.08876,9.30616c-3.97505,1.1646 -8.14155,-1.11371 -9.30616,-5.08876c-1.1646,-3.97505 1.11371,-8.14155 5.08876,-9.30616c3.97505,-1.1646 8.14155,1.11371 9.30616,5.08876z" fill="#002030"/><path d="M169.17758,242.85032c0.80228,2.73836 -0.76722,5.60863 -3.50559,6.41091c-2.73836,0.80228 -5.60863,-0.76722 -6.41091,-3.50559c-0.80228,-2.73836 0.76722,-5.60863 3.50559,-6.41091c2.73836,-0.80228 5.60863,0.76722 6.41091,3.50559z" fill="#000000"/></g></g></svg>