<svg version="1.1" xmlns="http://www.w3.org/2000/svg" xmlns:xlink="http://www.w3.org/1999/xlink" width="127.40451" height="120.73983" viewBox="0,0,127.40451,120.73983"><g transform="translate(-91.59108,-121.67837)"><g data-paper-data="{&quot;isPaintingLayer&quot;:true}" fill-rule="nonzero" stroke="#000000" stroke-width="2" stroke-linecap="butt" stroke-linejoin="miter" stroke-miterlimit="10" stroke-dasharray="" stroke-dashoffset="0" style="mix-blend-mode: normal"><path d="M125.9503,206.95129c9.17245,5.81727 12.17211,17.52773 6.69993,26.15604c-5.47218,8.62833 -17.34399,10.90712 -26.51643,5.08986c-9.17245,-5.81727 -12.17211,-17.52773 -6.69993,-26.15604c5.47218,-8.62833 17.34399,-10.90712 26.51643,-5.08986z" fill="#b5e6ff"/><path d="M116.34689,162.96773c7.46233,4.73269 9.91492,14.24062 5.47802,21.23656c-4.43691,6.99593 -14.08314,8.83066 -21.54546,4.09796c-7.46233,-4.73269 -9.91492,-14.24062 -5.47802,-21.23656c4.43691,-6.99593 14.08314,-8.83066 21.54546,-4.09796z" fill="#6ca9c7"/><path d="M136.1579,134.08666c6.49622,4.11998 8.76511,12.18598 5.06768,18.01592c-3.69742,5.82995 -11.96099,7.21614 -18.45722,3.09616c-6.49622,-4.11998 -8.76511,-12.18598 -5.06768,-18.01592c3.69742,-5.82995 11.96099,-7.21614 18.45722,-3.09616z" fill="#2d6b89"/><path d="M172.99254,124.68598c5.59675,3.54953 7.49614,10.58595 4.24241,15.7163c-3.25373,5.13035 -10.42845,6.41187 -16.02519,2.86235c-5.59675,-3.54953 -7.49614,-10.58595 -4.24241,-15.7163c3.25373,-5.13035 10.42845,-6.41187 16.02519,-2.86235z" fill="#006192"/><path d="M203.82286,148.58081c3.96436,2.51424 5.02002,7.95524 2.35788,12.1528c-2.66214,4.19755 -8.03398,5.56215 -11.99835,3.04792c-3.96436,-2.51424 -5.02002,-7.95524 -2.35788,-12.1528c2.66214,-4.19755 8.03398,-5.56215 11.99835,-3.04792z" fill="#004b70"/><path d="M214.51149,183.38467c3.49797,2.21846 4.53522,6.85252 2.31677,10.35049c-2.21846,3.49797 -6.85252,4.53522 -10.35049,2.31677c-3.49797,-2.21846 -4.53522,-6.85252 -2.31677,-10.35049c2.21846,-3.49797 6.85252,-4.53522 10.35049,-2.31677z" fill="#002030"/><path d="M201.7531,215.94916c2.4097,1.52827 3.12426,4.72062 1.596,7.13034c-1.52827,2.4097 -4.72062,3.12426 -7.13034,1.596c-2.4097,-1.52827 -3.12426,-4.72062 -1.596,-7.13034c1.52827,-2.4097 4.72062,-3.12426 7.13034,-1.596z" fill="#000000"/></g></g></svg>