<svg version="1.1" xmlns="http://www.w3.org/2000/svg" xmlns:xlink="http://www.w3.org/1999/xlink" width="466.42865" height="419.89318" viewBox="0,0,466.42865,419.89318"><defs><radialGradient cx="236.90753" cy="163.37461" r="81.89414" gradientUnits="userSpaceOnUse" id="color-1"><stop offset="0" stop-color="#ffffb8"/><stop offset="1" stop-color="#ffffb8" stop-opacity="0"/></radialGradient><radialGradient cx="236.90751" cy="163.3746" r="81.89414" gradientUnits="userSpaceOnUse" id="color-2"><stop offset="0" stop-color="#ffffb8"/><stop offset="1" stop-color="#ffffb8" stop-opacity="0"/></radialGradient><radialGradient cx="236.90749" cy="163.3746" r="81.89414" gradientUnits="userSpaceOnUse" id="color-3"><stop offset="0" stop-color="#ffffb8"/><stop offset="1" stop-color="#ffffb8" stop-opacity="0"/></radialGradient><radialGradient cx="236.90751" cy="163.3746" r="81.89414" gradientUnits="userSpaceOnUse" id="color-4"><stop offset="0" stop-color="#ffffb8"/><stop offset="1" stop-color="#ffffb8" stop-opacity="0"/></radialGradient><radialGradient cx="236.9075" cy="163.37459" r="81.89414" gradientUnits="userSpaceOnUse" id="color-5"><stop offset="0" stop-color="#ffffb8"/><stop offset="1" stop-color="#ffffb8" stop-opacity="0"/></radialGradient><radialGradient cx="246.71263" cy="170.65934" r="163.03622" gradientUnits="userSpaceOnUse" id="color-6"><stop offset="0" stop-color="#ffff84"/><stop offset="1" stop-color="#ffff84" stop-opacity="0"/></radialGradient></defs><g transform="translate(-19.6549,6.18912)"><g stroke="none" stroke-width="0" stroke-miterlimit="10"><path d="M148.51386,234.32789l67.16185,-51.238l-92.82074,-6.40777l18.72604,-69.52846l87.88873,45.7028l-26.38209,-76.87885l63.70289,-1.43511l-18.53693,78.85055l87.30072,-43.8074l21.59075,65.12514l-86.11744,7.65604l69.87244,53.9109l-69.32836,49.17981l-33.36428,-83.19404l-29.65274,83.18436z" fill="url(#color-1)"/><path d="M148.51385,234.32787l67.16185,-51.238l-92.82074,-6.40777l18.72604,-69.52846l87.88873,45.7028l-26.38209,-76.87885l63.70289,-1.43511l-18.53693,78.85055l87.30072,-43.8074l21.59075,65.12514l-86.11744,7.65604l69.87244,53.9109l-69.32836,49.17981l-33.36428,-83.19404l-29.65274,83.18436z" fill="url(#color-2)"/><path d="M148.51382,234.32787l67.16185,-51.238l-92.82074,-6.40777l18.72604,-69.52846l87.88873,45.7028l-26.38209,-76.87885l63.70289,-1.43511l-18.53693,78.85055l87.30072,-43.8074l21.59075,65.12514l-86.11744,7.65604l69.87244,53.9109l-69.32836,49.17981l-33.36428,-83.19404l-29.65274,83.18436z" fill="url(#color-3)"/><path d="M148.51385,234.32787l67.16185,-51.238l-92.82074,-6.40777l18.72604,-69.52846l87.88873,45.7028l-26.38209,-76.87885l63.70289,-1.43511l-18.53693,78.85055l87.30072,-43.8074l21.59075,65.12514l-86.11744,7.65604l69.87244,53.9109l-69.32836,49.17981l-33.36428,-83.19404l-29.65274,83.18436z" fill="url(#color-4)"/><path d="M148.51383,234.32786l67.16185,-51.238l-92.82074,-6.40777l18.72604,-69.52846l87.88873,45.7028l-26.38209,-76.87885l63.70289,-1.43511l-18.53693,78.85055l87.30072,-43.8074l21.59075,65.12514l-86.11744,7.65604l69.87244,53.9109l-69.32836,49.17981l-33.36428,-83.19404l-29.65274,83.18436z" fill="url(#color-5)"/><path d="M70.73705,311.9143l133.70693,-102.00546l-184.78908,-12.7567l37.28011,-138.41842l174.97035,90.9859l-52.52191,-153.0517l126.82078,-2.85704l-36.90363,156.97699l173.79973,-87.2125l42.98322,129.65222l-171.44403,15.24177l139.10322,107.32672l-138.02005,97.90798l-66.42217,-165.62409l-59.03317,165.60481z" fill="url(#color-6)"/></g></g></svg>