<svg version="1.1" xmlns="http://www.w3.org/2000/svg" xmlns:xlink="http://www.w3.org/1999/xlink" width="79.54892" height="57.38516" viewBox="0,0,79.54892,57.38516"><g transform="translate(-199.85109,-150.94929)"><g data-paper-data="{&quot;isPaintingLayer&quot;:true}" fill="none" fill-rule="nonzero" stroke="#ffffff" stroke-width="2" stroke-linecap="butt" stroke-linejoin="miter" stroke-miterlimit="10" stroke-dasharray="" stroke-dashoffset="0" style="mix-blend-mode: normal"><path d="M201.49524,207.33445c-1.131,-1.01139 -0.42857,-2.9052 -0.42857,-2.9052v-48.28571c0,0 -0.48332,-2.51897 0.57143,-3.61861c1.05475,-1.09964 3.17351,-0.28571 3.17351,-0.28571h34.92173l32.97245,0.35775c0,0 4.11589,-0.7795 5.69421,0.78511c1.14292,1.13298 0.63765,3.89935 0.63765,3.89935l-0.59394,47.15399c0,0 0.48807,2.08671 -0.47228,3.0419c-0.96036,0.95519 -3.01697,0.42857 -3.01697,0.42857h-70c0,0 -2.32822,0.43996 -3.45922,-0.57143z" data-paper-data="{&quot;origPos&quot;:null}"/></g></g></svg>