<svg version="1.1" xmlns="http://www.w3.org/2000/svg" xmlns:xlink="http://www.w3.org/1999/xlink" width="229.96328" height="104.55674" viewBox="0,0,229.96328,104.55674"><g transform="translate(-128.43019,-127.75012)"><g data-paper-data="{&quot;isPaintingLayer&quot;:true}" fill="none" fill-rule="nonzero" stroke="none" stroke-width="none" stroke-linecap="round" stroke-linejoin="miter" stroke-miterlimit="10" stroke-dasharray="" stroke-dashoffset="0" font-family="none" font-weight="none" font-size="none" text-anchor="none" style="mix-blend-mode: normal"><path d="M142.83334,140.93332c0,0 20.65918,-8.79652 34.06983,-8.26207c10.24923,0.40846 16.30255,1.96586 26.55593,2.25212c26.10535,0.72882 66.61027,0.27773 66.61027,0.27773l-1,-6.6c0,0 2.00685,-1.34479 4.20569,-0.01107c2.56236,1.55422 7.99431,7.41107 7.99431,7.41107c0,0 38.23641,-2.66655 54.63691,2.30733c15.10005,4.57949 21.36309,27.95934 21.36309,27.95934c0,0 1.12571,9.23123 0.82214,15.01167c-0.32085,6.10957 -2.42214,15.455 -2.42214,15.455c0,0 -8.67829,22.80648 -19.40153,25.1754c-19.41008,4.28796 -55.39847,0.6246 -55.39847,0.6246c0,0 -6.31989,7.12546 -8.95683,8.8699c-2.43648,1.61183 -4.64317,-0.2699 -4.64317,-0.2699l4.8973,-9.20111c0,0 -57.07902,0.26387 -68.31156,0.91427c-12.47152,0.72214 -25.24799,2.25721 -41.38965,1.59668c-8.05195,-0.32949 -20.63212,-7.84428 -20.63212,-7.84428c0,0 -13.6691,-19.06058 -13.13807,-38.99742c0.47734,-17.92085 14.13807,-36.66924 14.13807,-36.66924z" data-paper-data="{&quot;origPos&quot;:null}" fill="#001a9c" stroke="#000000" stroke-width="0.5"/><path d="M277.33334,140.26668c0,0 0.41584,2.28288 -16.90524,3.86402c-7.67012,0.70016 -20.4281,2.80264 -20.4281,2.80264c0,0 -20.77331,0.5716 -33.00254,0.51076c-13.91839,-0.06924 -33.99746,-0.8441 -33.99746,-0.8441c0,0 11.06786,-5.03713 29.03272,-6.12765c22.75256,-1.38115 75.30061,-0.20568 75.30061,-0.20568z" data-paper-data="{&quot;origPos&quot;:null}" fill="#000000" stroke="#000000" stroke-width="0.5"/><path d="M278.66667,219.31554c0,0 -52.54805,1.17547 -75.30062,-0.20568c-17.96486,-1.09052 -29.03272,-6.12765 -29.03272,-6.12765c0,0 20.07907,-0.77486 33.99746,-0.8441c12.22923,-0.06084 33.00254,0.51076 33.00254,0.51076c0,0 12.75798,2.10248 20.4281,2.80264c17.32108,1.58114 16.90524,3.86402 16.90524,3.86402z" data-paper-data="{&quot;origPos&quot;:null,&quot;index&quot;:null}" fill="#000000" stroke="#000000" stroke-width="0.5"/><path d="M295.33332,214.26667c0,0 -6.05352,1.32114 -10.35622,0.90113c-12.9081,-1.26003 -67.62691,-7.14881 -67.62691,-7.14881c-23.47553,-0.22006 -64.01686,-3.41899 -64.01686,-3.41899c0,0 -12.18921,-1.92573 -11.50212,-28.33437c0.38531,-14.80939 11.16879,-24.33229 11.16879,-24.33229c0,0 39.29612,-0.12997 63.38089,-1.49326c26.46061,-1.49777 55.65879,-5.01316 67.68369,-6.1671c4.0083,-0.38465 10.26875,-0.33964 10.26875,-0.33964c0,0 10.2977,7.75582 10.48338,35.99786c0.15711,23.89588 -9.48338,34.33547 -9.48338,34.33547z" data-paper-data="{&quot;origPos&quot;:null}" fill="#000000" stroke="#000000" stroke-width="0.5"/><path d="M298.20592,215.46425c0,0 14.31889,-2.18713 22.84366,-4.38707c9.62245,-2.48321 23.65634,-7.61293 23.65634,-7.61293" data-paper-data="{&quot;origPos&quot;:null}" fill="none" stroke="#000000" stroke-width="0.5"/><path d="M299.45592,144.21425c0,0 13.22483,1.77201 20.88933,4.02627c8.92167,2.62402 21.61067,8.47373 21.61067,8.47373" data-paper-data="{&quot;origPos&quot;:null}" fill="none" stroke="#000000" stroke-width="0.5"/><path d="M334.70592,140.46425c0,0 6.27683,2.73757 9.33425,5.92988c3.57705,3.73486 7.66575,11.82012 7.66575,11.82012" data-paper-data="{&quot;origPos&quot;:null}" fill="none" stroke="#ffffff" stroke-width="2.5"/><path d="M351.70592,201.71425c0,0 -5.90767,9.66484 -9.52887,13.45064c-2.81814,2.94623 -6.97113,3.79936 -6.97113,3.79936" data-paper-data="{&quot;origPos&quot;:null}" fill="none" stroke="#ffffff" stroke-width="2.5"/><path d="M146.23216,218.03583c0,0 -3.6749,-1.90679 -6.07459,-6.32126c-2.39968,-4.41447 -3.35291,-6.57192 -3.35291,-6.57192" data-paper-data="{&quot;origPos&quot;:null,&quot;index&quot;:null,&quot;origRot&quot;:0}" fill="none" stroke="#ff0000" stroke-width="2"/><path d="M136.92967,154.03584c0,0 0.95322,-2.15745 3.35291,-6.57192c2.39969,-4.41447 6.07458,-6.32126 6.07458,-6.32126" data-paper-data="{&quot;origPos&quot;:null,&quot;index&quot;:null,&quot;origRot&quot;:0}" fill="none" stroke="#ff0000" stroke-width="2"/></g></g></svg>