<svg version="1.1" xmlns="http://www.w3.org/2000/svg" xmlns:xlink="http://www.w3.org/1999/xlink" width="193" height="193"><g transform="translate(-143.5,-83.5)"><g data-paper-data="{&quot;isPaintingLayer&quot;:true}" fill="none" fill-rule="nonzero" stroke="none" stroke-width="none" stroke-linecap="none" stroke-linejoin="miter" stroke-miterlimit="10" stroke-dasharray="" stroke-dashoffset="0" font-family="none" font-weight="none" font-size="none" text-anchor="none" style="mix-blend-mode: normal"><path d="M143.5,276.5v-193h193v193z" data-paper-data="{&quot;origPos&quot;:null}" fill="#7d7d7d" stroke="none" stroke-width="0" stroke-linecap="butt"/><g data-paper-data="{&quot;origPos&quot;:null,&quot;origRot&quot;:0}" stroke-linecap="round"><path d="M221.06091,228.38293c0,0 -4.21541,-9.95346 -3.94565,-16.40882c0.20616,-4.93357 0.96152,-7.84618 1.10887,-12.78187c0.37513,-12.56638 0.19566,-32.06576 0.19566,-32.06576l-3.17815,0.47526c0,0 -0.64551,-0.96734 -0.00142,-2.02462c0.75058,-1.23207 3.57511,-3.84155 3.57511,-3.84155c0,0 -1.2481,-18.4094 1.16157,-26.29993c2.2186,-7.26487 13.47943,-10.25814 13.47943,-10.25814c0,0 4.44494,-0.53333 7.22735,-0.38182c2.94084,0.16014 7.43774,1.18038 7.43774,1.18038c0,0 10.97092,4.19892 12.10133,9.36327c2.04616,9.34795 0.24915,26.66927 0.24915,26.66927c0,0 3.42431,3.04901 4.26162,4.32004c0.77366,1.17442 -0.13425,2.23496 -0.13425,2.23496l-4.42484,-2.3661c0,0 0.07394,27.47795 0.37659,32.88587c0.33604,6.00443 1.06313,12.15642 0.73014,19.92637c-0.16611,3.87589 -3.7954,9.92496 -3.7954,9.92496c0,0 -9.18843,6.56254 -18.78548,6.28837c-8.62661,-0.24646 -17.63934,-6.84014 -17.63934,-6.84014z" data-paper-data="{&quot;origPos&quot;:null}" fill="#001a9c" stroke="#000000" stroke-width="0.5"/><path d="M220.86509,163.63434c0,0 1.09936,-0.19806 1.8444,8.14174c0.32993,3.69302 1.33019,9.83665 1.33019,9.83665c0,0 0.25585,10.00075 0.21518,15.88782c-0.04628,6.70021 -0.43797,16.36551 -0.43797,16.36551c0,0 -2.41457,-5.33273 -2.92283,-13.98198c-0.64372,-10.95431 -0.02897,-36.24972 -0.02897,-36.24972z" data-paper-data="{&quot;origPos&quot;:null}" fill="#000000" stroke="#000000" stroke-width="0.5"/><path d="M258.92027,163.06599c0,0 0.51699,25.2976 -0.16905,36.24935c-0.54168,8.64723 -2.97684,13.97058 -2.97684,13.97058c0,0 -0.35434,-9.66673 -0.37473,-16.36708c-0.01792,-5.88718 0.27658,-15.88687 0.27658,-15.88687c0,0 1.02399,-6.1397 1.36819,-9.83143c0.77727,-8.33685 1.87585,-8.13455 1.87585,-8.13455z" data-paper-data="{&quot;origPos&quot;:null,&quot;index&quot;:null}" fill="#000000" stroke="#000000" stroke-width="0.5"/><path d="M256.50525,155.03801c0,0 0.63036,2.91538 0.42417,4.9863c-0.61858,6.21276 -3.50432,32.54878 -3.50432,32.54878c-0.12777,11.30086 -1.70544,30.81438 -1.70544,30.81438c0,0 -0.93838,5.86607 -13.65079,5.51074c-7.12885,-0.19926 -11.70312,-5.39926 -11.70312,-5.39926c0,0 -0.02602,-18.91718 -0.6599,-30.5128c-0.69641,-12.73947 -2.36156,-26.79867 -2.90587,-32.58851c-0.18144,-1.92994 -0.15395,-4.94367 -0.15395,-4.94367c0,0 3.74321,-4.95008 17.33904,-5.01319c11.50356,-0.0534 16.52019,4.59721 16.52019,4.59721z" data-paper-data="{&quot;origPos&quot;:null}" fill="#000000" stroke="#000000" stroke-width="0.5"/><path d="M251.35091,131.26012c0,0 2.45638,6.76065 3.64284,11.39519c1.05112,4.10585 2.09068,11.00096 2.09068,11.00096" data-paper-data="{&quot;origPos&quot;:null}" fill="none" stroke="#000000" stroke-width="0.5"/><path d="M222.78602,152.98825c0,0 0.86534,-6.36475 1.95767,-10.05233c1.2715,-4.29243 4.09933,-10.39544 4.09933,-10.39544" data-paper-data="{&quot;origPos&quot;:null}" fill="none" stroke="#000000" stroke-width="0.5"/><path d="M221.01356,136.01549c0,0 1.3237,-3.01911 2.86332,-4.48797c1.80128,-1.71851 5.69731,-3.67928 5.69731,-3.67928" data-paper-data="{&quot;origPos&quot;:null}" fill="none" stroke="#ffffff" stroke-width="2.5"/><path d="M250.51498,127.88871c0,0 4.64714,2.85292 6.46624,4.59968c1.41569,1.35939 1.82252,3.35942 1.82252,3.35942" data-paper-data="{&quot;origPos&quot;:null}" fill="none" stroke="#ffffff" stroke-width="2.5"/><path d="M258.18104,226.81846c0,0 -0.92135,1.76731 -3.04869,2.91842c-2.12735,1.15109 -3.16682,1.60797 -3.16682,1.60797" data-paper-data="{&quot;origPos&quot;:null,&quot;index&quot;:null,&quot;origRot&quot;:0}" fill="none" stroke="#ff0000" stroke-width="2"/><path d="M227.36294,231.23713c0,0 -1.0377,-0.46089 -3.16059,-1.6202c-2.12288,-1.15931 -3.03739,-2.93016 -3.03739,-2.93016" data-paper-data="{&quot;origPos&quot;:null,&quot;index&quot;:null,&quot;origRot&quot;:0}" fill="none" stroke="#ff0000" stroke-width="2"/></g><path d="M227.83333,246.66667c0,-1.95266 1.58295,-3.53561 3.53561,-3.53561c1.95266,0 3.53561,1.58295 3.53561,3.53561c0,1.95266 -1.58295,3.53561 -3.53561,3.53561c-1.95266,0 -3.53561,-1.58295 -3.53561,-3.53561z" data-paper-data="{&quot;origPos&quot;:null}" fill="#c3c3c3" stroke="none" stroke-width="NaN" stroke-linecap="butt"/><path d="M236.56838,246.66667c0,-1.95267 1.58295,-3.53561 3.53561,-3.53561c1.95267,0 3.53561,1.58295 3.53561,3.53561c0,1.95267 -1.58295,3.53561 -3.53561,3.53561c-1.95267,0 -3.53561,-1.58295 -3.53561,-3.53561z" data-paper-data="{&quot;origPos&quot;:null}" fill="#ffffff" stroke="none" stroke-width="NaN" stroke-linecap="butt"/><path d="M245.09544,246.66667c0,-1.95267 1.58295,-3.53561 3.53561,-3.53561c1.95267,0 3.53561,1.58295 3.53561,3.53561c0,1.95267 -1.58295,3.53561 -3.53561,3.53561c-1.95267,0 -3.53561,-1.58295 -3.53561,-3.53561z" data-paper-data="{&quot;origPos&quot;:null}" fill="#c3c3c3" stroke="none" stroke-width="NaN" stroke-linecap="butt"/><text transform="translate(197.49001,118.26875) scale(0.5,0.5)" font-size="40" xml:space="preserve" data-paper-data="{&quot;origPos&quot;:null}" fill="#ffffff" fill-rule="nonzero" stroke="none" stroke-width="1" stroke-linecap="butt" stroke-linejoin="miter" stroke-miterlimit="10" stroke-dasharray="" stroke-dashoffset="0" font-family="Sans Serif" font-weight="normal" text-anchor="start" style="mix-blend-mode: normal"><tspan x="0" dy="0">summon</tspan></text><g data-paper-data="{&quot;origPos&quot;:null}" fill="#ffffff" stroke="none" stroke-width="0" stroke-linecap="butt"><path d="M187.5,150.5l10.5,-18l12.5,18z" data-paper-data="{&quot;origPos&quot;:null}"/><path d="M196.5,165.75v-23.5h5v23.5z" data-paper-data="{&quot;origPos&quot;:null}"/></g><g data-paper-data="{&quot;origPos&quot;:null,&quot;index&quot;:null}" fill="#ffffff" stroke="none" stroke-width="0" stroke-linecap="butt"><path d="M210,207.25l-12.5,18l-10.5,-18z" data-paper-data="{&quot;origPos&quot;:null}"/><path d="M201,192v23.5h-5v-23.5z" data-paper-data="{&quot;origPos&quot;:null}"/></g><text transform="translate(177.47501,185.51875) scale(0.39583,0.39583)" font-size="40" xml:space="preserve" data-paper-data="{&quot;origPos&quot;:null}" fill="#ffffff" fill-rule="nonzero" stroke="none" stroke-width="1" stroke-linecap="butt" stroke-linejoin="miter" stroke-miterlimit="10" stroke-dasharray="" stroke-dashoffset="0" font-family="Sans Serif" font-weight="normal" text-anchor="start" style="mix-blend-mode: normal"><tspan x="0" dy="0">STOP</tspan></text><text transform="translate(266.87304,176.64506) scale(0.29079,0.29079)" font-size="40" xml:space="preserve" data-paper-data="{&quot;origPos&quot;:null}" fill="#ffffff" fill-rule="nonzero" stroke="none" stroke-width="1" stroke-linecap="butt" stroke-linejoin="miter" stroke-miterlimit="10" stroke-dasharray="" stroke-dashoffset="0" font-family="Sans Serif" font-weight="normal" text-anchor="start" style="mix-blend-mode: normal"><tspan x="0" dy="0">come</tspan><tspan x="0" dy="46.15px">to me</tspan></text></g></g></svg>