<svg version="1.1" xmlns="http://www.w3.org/2000/svg" xmlns:xlink="http://www.w3.org/1999/xlink" width="133.66666" height="123.66668" viewBox="0,0,133.66666,123.66668"><g transform="translate(-82.69443,-128.76735)"><g stroke="#000000" stroke-width="2" stroke-miterlimit="10"><path d="M120.69443,177.43403c0,10.8616 -8.28273,19.66667 -18.5,19.66667c-10.21727,0 -18.5,-8.80506 -18.5,-19.66667c0,-10.8616 8.28273,-19.66667 18.5,-19.66667c10.21727,0 18.5,8.80506 18.5,19.66667z" fill="#b5e6ff"/><path d="M152.69443,145.76735c0,8.83656 -6.71573,16 -15,16c-8.28427,0 -15,-7.16344 -15,-16c0,-8.83656 6.71573,-16 15,-16c8.28427,0 15,7.16344 15,16z" fill="#6ca9c7"/><path d="M187.69443,147.02926c0,7.69254 -5.59644,13.92857 -12.5,13.92857c-6.90356,0 -12.5,-6.23603 -12.5,-13.92857c0,-7.69254 5.59644,-13.92857 12.5,-13.92857c6.90356,0 12.5,6.23603 12.5,13.92857z" fill="#2d6b89"/><path d="M215.36109,173.10069c0,6.62742 -4.92487,12 -11,12c-6.07513,0 -11,-5.37258 -11,-12c0,-6.62742 4.92487,-12 11,-12c6.07513,0 11,5.37258 11,12z" fill="#006192"/><path d="M211.69443,211.93402c0,4.69442 -4.02944,8.5 -9,8.5c-4.97056,0 -9,-3.80558 -9,-8.5c0,-4.69442 4.02944,-8.5 9,-8.5c4.97056,0 9,3.80558 9,8.5z" fill="#004b70"/><path d="M188.02776,239.60069c0,4.14214 -3.35786,7.5 -7.5,7.5c-4.14214,0 -7.5,-3.35786 -7.5,-7.5c0,-4.14214 3.35786,-7.5 7.5,-7.5c4.14214,0 7.5,3.35786 7.5,7.5z" fill="#002030"/><path d="M153.69443,246.26736c0,2.85347 -2.31319,5.16667 -5.16667,5.16667c-2.85347,0 -5.16667,-2.31319 -5.16667,-5.16667c0,-2.85347 2.31319,-5.16667 5.16667,-5.16667c2.85347,0 5.16667,2.31319 5.16667,5.16667z" fill="#000000"/></g></g></svg>