<svg version="1.1" xmlns="http://www.w3.org/2000/svg" xmlns:xlink="http://www.w3.org/1999/xlink" width="119.50945" height="134.0768" viewBox="0,0,119.50945,134.0768"><g transform="translate(-93.78049,-117.31259)"><g data-paper-data="{&quot;isPaintingLayer&quot;:true}" fill-rule="nonzero" stroke="#000000" stroke-width="2" stroke-linecap="butt" stroke-linejoin="miter" stroke-miterlimit="10" stroke-dasharray="" stroke-dashoffset="0" style="mix-blend-mode: normal"><path d="M145.29606,153.18176c-9.43713,5.37725 -21.18797,2.53992 -26.24624,-6.33735c-5.05829,-8.8773 -1.50851,-20.43291 7.9286,-25.81018c9.43713,-5.37725 21.18797,-2.53992 26.24624,6.33735c5.05829,8.8773 1.50851,20.43291 -7.9286,25.81018z" fill="#b5e6ff"/><path d="M188.65203,165.30779c-7.67767,4.37471 -17.2264,2.08615 -21.32774,-5.11164c-4.1013,-7.19782 -1.2021,-16.57921 6.47557,-20.95394c7.67767,-4.37471 17.2264,-2.08615 21.32774,5.11164c4.1013,7.19782 1.2021,16.57921 -6.47557,20.95394z" fill="#6ca9c7"/><path d="M204.8831,196.34235c-6.68367,3.80836 -14.87252,2.03317 -18.29024,-3.96501c-3.41777,-5.99817 -0.7702,-13.94794 5.91349,-17.7563c6.68367,-3.80836 14.87252,-2.03317 18.29024,3.96501c3.41777,5.99817 0.7702,13.94794 -5.91349,17.7563z" fill="#2d6b89"/><path d="M195.92785,233.2878c-5.75827,3.28104 -12.8644,1.66189 -15.87201,-3.6165c-3.00762,-5.27839 -0.77779,-12.21719 4.98044,-15.49824c5.75827,-3.28104 12.8644,-1.66189 15.87201,3.6165c3.00762,5.27839 0.77779,12.21719 -4.98044,15.49824z" fill="#006192"/><path d="M160.37216,249.32728c-4.07876,2.32407 -9.3801,0.70712 -11.84091,-3.61157c-2.46076,-4.31868 -1.14913,-9.70369 2.92958,-12.02778c4.07876,-2.32407 9.3801,-0.70712 11.84091,3.61157c2.46076,4.31868 1.14913,9.70369 -2.92958,12.02778z" fill="#004b70"/><path d="M124.61721,242.46144c-3.59892,2.05066 -8.17877,0.79555 -10.22944,-2.80335c-2.05066,-3.59892 -0.79555,-8.17877 2.80335,-10.22944c3.59892,-2.05066 8.17877,-0.79555 10.22944,2.80335c2.05066,3.59892 0.79555,8.17877 -2.80335,10.22944z" fill="#002030"/><path d="M101.82743,215.9313c-2.47925,1.41268 -5.63427,0.54806 -7.04694,-1.9312c-1.41268,-2.47925 -0.54806,-5.63427 1.9312,-7.04694c2.47925,-1.41268 5.63427,-0.54806 7.04694,1.9312c1.41268,2.47925 0.54806,5.63427 -1.9312,7.04694z" fill="#000000"/></g></g></svg>