<svg version="1.1" xmlns="http://www.w3.org/2000/svg" xmlns:xlink="http://www.w3.org/1999/xlink" width="243.44307" height="114.62839" viewBox="0,0,243.44307,114.62839"><g transform="translate(-118.08146,-122.65175)"><g data-paper-data="{&quot;isPaintingLayer&quot;:true}" fill="none" fill-rule="nonzero" stroke="none" stroke-width="none" stroke-linecap="round" stroke-linejoin="miter" stroke-miterlimit="10" stroke-dasharray="" stroke-dashoffset="0" font-family="none" font-weight="none" font-size="none" text-anchor="none" style="mix-blend-mode: normal"><path d="M137.33333,138.93333c0,0 18.46472,-4.52793 30.06973,-5.50588c11.55059,-0.97336 29.2636,0.50588 29.2636,0.50588l85.33333,-1.33333l-2,-8.33333c0,0 3.65995,0.74257 5.57581,2.2846c3.41773,2.75086 8.09085,8.7154 8.09085,8.7154c0,0 28.49086,-3.8519 39.2592,0.72325c14.33857,6.09204 25.07413,26.61008 25.07413,26.61008c0,0 2.16739,8.87035 2.27453,14.33449c0.15303,7.8048 -1.60787,19.66552 -1.60787,19.66552c0,0 -10.94882,21.72925 -22.22363,26.67636c-14.22236,6.24042 -43.1097,1.99031 -43.1097,1.99031c0,0 -5.23569,6.32243 -8.5868,8.87566c-2.11257,1.60958 -5.4132,1.79101 -5.4132,1.79101l3,-9.66667l-88.33333,-1.66667c0,0 -15.80536,1.53932 -26.775,0.6044c-11.92578,-1.0164 -31.89167,-5.6044 -31.89167,-5.6044c0,0 -17.13689,-5.65298 -15.94218,-45.66523c0.6216,-20.81802 17.94218,-35.00143 17.94218,-35.00143z" data-paper-data="{&quot;origPos&quot;:null}" fill="#000000" stroke="#000000" stroke-width="2.5"/><path d="M171.66667,209.26667v-24.66667c0,0 16.44918,1.92081 26.9775,2.29682c11.3264,0.40452 29.0225,-0.29682 29.0225,-0.29682v24.66667z" data-paper-data="{&quot;origPos&quot;:null}" fill="#ffffff" stroke="#ffffff" stroke-width="2.5"/><path d="M162.66667,147.26667l-0.66666,61l-28,-2c0,0 -4.11236,-17.42277 -4.18427,-29.00093c-0.05818,-9.36595 3.85093,-24.66574 3.85093,-24.66574z" data-paper-data="{&quot;origPos&quot;:null}" fill="#ffffff" stroke="#ffffff" stroke-width="3"/><path d="M304,217.6c0,0 -20.57169,-1.65074 -33.73862,-2.92065c-12.46033,-1.20176 -31.92804,-3.41268 -31.92804,-3.41268l1.66666,-64.33334c0,0 19.9241,-1.88184 32.67654,-2.87296c12.35447,-0.96019 31.65679,-2.12704 31.65679,-2.12704c0,0 7.57085,21.74955 7.50952,35.67038c-0.06876,15.60906 -7.84286,39.99629 -7.84286,39.99629z" data-paper-data="{&quot;origPos&quot;:null}" fill="#ffffff" stroke="#ffffff" stroke-width="3"/><path d="M308.66667,138.93334c0,0 13.69797,3.72624 22.46537,7.17797c7.75373,3.05265 16.53463,8.15537 16.53463,8.15537" data-paper-data="{&quot;origPos&quot;:null}" fill="none" stroke="#ffffff" stroke-width="3"/><path d="M308.66667,220.93334c0,0 13.89429,-3.41661 22.78734,-6.67016c7.10773,-2.60038 14.21266,-7.66317 14.21266,-7.66317" data-paper-data="{&quot;origPos&quot;:null}" fill="none" stroke="#ffffff" stroke-width="3"/><path d="M154.33334,143.26667c0,0 38.49905,-4.1848 68.04746,-5.79653c20.53532,-1.12011 60.28587,-1.20347 60.28587,-1.20347l-40,5.33333c0,0 -19.61893,2.01168 -31.32265,2.23251c-22.7695,0.42962 -57.01067,-0.56583 -57.01067,-0.56583z" data-paper-data="{&quot;origPos&quot;:null}" fill="#ffffff" stroke="#ffffff" stroke-width="3"/><path d="M211.67735,215.37428c11.70372,0.22082 31.32265,2.23251 31.32265,2.23251l40,5.33333c0,0 -39.75055,-0.08336 -60.28587,-1.20347c-29.54841,-1.61173 -68.04746,-5.79653 -68.04746,-5.79653c0,0 34.24118,-0.99545 57.01067,-0.56583z" data-paper-data="{&quot;origPos&quot;:null,&quot;index&quot;:null}" fill="#ffffff" stroke="#ffffff" stroke-width="3"/><path d="M131.66667,152.26667c0,0 -3.66667,13.89387 -3.66667,23c0,11.83797 3.66667,30.66667 3.66667,30.66667l-5,-0.66667c0,0 -5.12133,-16.26019 -5.16986,-26.66771c-0.0638,-13.68301 4.83652,-25.66563 4.83652,-25.66563z" data-paper-data="{&quot;origPos&quot;:null}" fill="#898989" stroke="#898989" stroke-width="2.5"/><path d="M228.06667,150v24.66667c0,0 -16.44918,-1.92081 -26.9775,-2.29682c-11.3264,-0.40452 -29.0225,0.29682 -29.0225,0.29682v-24.66667z" data-paper-data="{&quot;origPos&quot;:null,&quot;index&quot;:null}" fill="#ffffff" stroke="#ffffff" stroke-width="2.5"/></g></g></svg>