<svg version="1.1" xmlns="http://www.w3.org/2000/svg" xmlns:xlink="http://www.w3.org/1999/xlink" width="127.44701" height="130.5554" viewBox="0,0,127.44701,130.5554"><g transform="translate(-91.47715,-121.02339)"><g data-paper-data="{&quot;isPaintingLayer&quot;:true}" fill-rule="nonzero" stroke="#000000" stroke-width="2" stroke-linecap="butt" stroke-linejoin="miter" stroke-miterlimit="10" stroke-dasharray="" stroke-dashoffset="0" style="mix-blend-mode: normal"><path d="M134.14412,214.20235c10.43881,3.00095 16.6127,13.39402 13.78977,23.21357c-2.82292,9.81957 -13.57369,15.34713 -24.01248,12.34619c-10.43881,-3.00095 -16.6127,-13.39402 -13.78977,-23.21357c2.82292,-9.81957 13.57369,-15.34713 24.01248,-12.34619z" fill="#b5e6ff"/><path d="M112.55134,174.69879c8.49259,2.44145 13.5217,10.87495 11.23285,18.83676c-2.28887,7.9618 -11.02895,12.43694 -19.52154,9.99549c-8.49259,-2.44145 -13.5217,-10.87495 -11.23285,-18.83676c2.28887,-7.9618 11.02895,-12.43694 19.52154,-9.99549z" fill="#6ca9c7"/><path d="M123.43427,141.40985c7.3931,2.12537 11.84016,9.22691 9.93276,15.86175c-1.90738,6.63484 -9.44691,10.29047 -16.84002,8.16511c-7.3931,-2.12537 -11.84016,-9.22691 -9.93276,-15.86175c1.90738,-6.63484 9.44691,-10.29047 16.84002,-8.16511z" fill="#2d6b89"/><path d="M156.13487,122.02339c6.36945,1.8311 10.17221,8.04864 8.49371,13.8873c-1.6785,5.83865 -8.20264,9.08743 -14.57207,7.25634c-6.36945,-1.8311 -10.17221,-8.04864 -8.49371,-13.8873c1.6785,-5.83865 8.20264,-9.08743 14.57207,-7.25634z" fill="#006192"/><path d="M192.44352,136.27657c4.51168,1.29702 7.05584,6.22106 5.68253,10.99814c-1.37332,4.77707 -6.14405,7.59822 -10.65574,6.30122c-4.51168,-1.29702 -7.05584,-6.22106 -5.68253,-10.99814c1.37332,-4.77707 6.14405,-7.59822 10.65574,-6.30122z" fill="#004b70"/><path d="M212.4944,166.66601c3.98091,1.14444 6.28032,5.29933 5.13589,9.28023c-1.14444,3.98091 -5.29933,6.28032 -9.28023,5.13589c-3.98091,-1.14444 -6.28032,-5.29933 -5.13589,-9.28023c1.14444,-3.98091 5.29933,-6.28032 9.28023,-5.13589z" fill="#002030"/><path d="M209.41562,201.50483c2.74239,0.78839 4.32644,3.65064 3.53806,6.39305c-0.78839,2.74239 -3.65064,4.32644 -6.39305,3.53806c-2.74239,-0.78839 -4.32644,-3.65064 -3.53806,-6.39305c0.78839,-2.74239 3.65064,-4.32644 6.39305,-3.53806z" fill="#000000"/></g></g></svg>