<svg version="1.1" xmlns="http://www.w3.org/2000/svg" xmlns:xlink="http://www.w3.org/1999/xlink" width="193" height="193"><g transform="translate(-143.5,-83.5)"><g data-paper-data="{&quot;isPaintingLayer&quot;:true}" fill="none" fill-rule="nonzero" stroke="none" stroke-width="none" stroke-linecap="none" stroke-linejoin="miter" stroke-miterlimit="10" stroke-dasharray="" stroke-dashoffset="0" font-family="none" font-weight="none" font-size="none" text-anchor="none" style="mix-blend-mode: normal"><path d="M143.5,276.5v-193h193v193z" data-paper-data="{&quot;origPos&quot;:null}" fill="#7d7d7d" stroke="none" stroke-width="0" stroke-linecap="butt"/><text transform="translate(183.72002,240.43542) scale(0.5,0.5)" font-size="40" xml:space="preserve" data-paper-data="{&quot;origPos&quot;:null}" fill="#ffffff" fill-rule="nonzero" stroke="none" stroke-width="1" stroke-linecap="butt" stroke-linejoin="miter" stroke-miterlimit="10" stroke-dasharray="" stroke-dashoffset="0" font-family="Sans Serif" font-weight="normal" text-anchor="start" style="mix-blend-mode: normal"><tspan x="0" dy="0">my model X</tspan></text><g data-paper-data="{&quot;origPos&quot;:null}" stroke-linecap="round"><path d="M191.58167,175.17964c0,0 9.9453,-4.23463 16.40117,-3.97735c4.93396,0.19663 7.84802,0.94636 12.78399,1.08417c12.56708,0.35085 32.06608,0.1337 32.06608,0.1337l-0.4814,-3.17723c0,0 0.96609,-0.64738 2.02461,-0.00533c1.23352,0.7482 3.84845,3.56768 3.84845,3.56768c0,0 18.40695,-1.28367 26.30213,1.11075c7.26914,2.20456 10.28416,13.45958 10.28416,13.45958c0,0 0.54192,4.4439 0.39578,7.2266c-0.15446,2.94114 -1.16601,7.44001 -1.16601,7.44001c0,0 -4.17772,10.97901 -9.33987,12.1194c-9.34398,2.06422 -26.66874,0.30068 -26.66874,0.30068c0,0 -3.04239,3.43019 -4.3118,4.26996c-1.17292,0.77593 -2.23522,-0.12993 -2.23522,-0.12993l2.35755,-4.4294c0,0 -27.47776,0.12703 -32.88508,0.44013c-6.00377,0.34764 -12.15434,1.08662 -19.92492,0.76864c-3.8762,-0.15862 -9.93227,-3.77622 -9.93227,-3.77622c0,0 -6.58028,-9.17573 -6.32465,-18.7733c0.22979,-8.62707 6.80605,-17.65252 6.80605,-17.65252z" data-paper-data="{&quot;origPos&quot;:null}" fill="#001a9c" stroke="#000000" stroke-width="0.5"/><path d="M256.32976,174.85872c0,0 0.20018,1.09898 -8.13816,1.86013c-3.69238,0.33706 -9.83406,1.34919 -9.83406,1.34919c0,0 -10.00024,0.27517 -15.88737,0.24588c-6.70029,-0.03333 -16.36633,-0.40635 -16.36633,-0.40635c0,0 5.32805,-2.42487 13.97631,-2.94984c10.95305,-0.66488 36.2496,-0.09901 36.2496,-0.09901z" data-paper-data="{&quot;origPos&quot;:null}" fill="#000000" stroke="#000000" stroke-width="0.5"/><path d="M256.97163,212.91273c0,0 -25.29655,0.56587 -36.24961,-0.09901c-8.64826,-0.52497 -13.97631,-2.94984 -13.97631,-2.94984c0,0 9.66603,-0.37302 16.36633,-0.40635c5.88713,-0.02929 15.88737,0.24588 15.88737,0.24588c0,0 6.14167,1.01213 9.83406,1.34919c8.33834,0.76116 8.13816,1.86013 8.13816,1.86013z" data-paper-data="{&quot;origPos&quot;:null,&quot;index&quot;:null}" fill="#000000" stroke="#000000" stroke-width="0.5"/><path d="M264.99493,210.48221c0,0 -2.91416,0.63599 -4.98547,0.4338c-6.21394,-0.60658 -32.55549,-3.44143 -32.55549,-3.44143c-11.30109,-0.10594 -30.81762,-1.6459 -30.81762,-1.6459c0,0 -5.86787,-0.92704 -5.5371,-13.64012c0.18549,-7.12922 5.37664,-11.71353 5.37664,-11.71353c0,0 18.91709,-0.06257 30.51147,-0.71885c12.7381,-0.72102 26.79406,-2.41333 32.58283,-2.96883c1.92959,-0.18517 4.94336,-0.1635 4.94336,-0.1635c0,0 4.9573,3.73364 5.04668,17.32932c0.07563,11.50344 -4.56528,16.52904 -4.56528,16.52904z" data-paper-data="{&quot;origPos&quot;:null}" fill="#000000" stroke="#000000" stroke-width="0.5"/><path d="M288.76282,205.28194c0,0 -6.75589,2.46944 -11.38813,3.66485c-4.10381,1.05905 -10.9969,2.11193 -10.9969,2.11193" data-paper-data="{&quot;origPos&quot;:null}" fill="none" stroke="#000000" stroke-width="0.5"/><path d="M266.97954,176.75908c0,0 6.36641,0.85304 10.05609,1.93824c4.29488,1.2632 10.40334,4.07924 10.40334,4.07924" data-paper-data="{&quot;origPos&quot;:null}" fill="none" stroke="#000000" stroke-width="0.5"/><path d="M283.94884,174.95383c0,0 3.02166,1.31786 4.49349,2.85464c1.72199,1.79796 3.69028,5.69019 3.69028,5.69019" data-paper-data="{&quot;origPos&quot;:null}" fill="none" stroke="#ffffff" stroke-width="2.5"/><path d="M292.13261,204.43949c0,0 -2.84394,4.65264 -4.58718,6.47512c-1.35665,1.41831 -3.35589,1.82901 -3.35589,1.82901" data-paper-data="{&quot;origPos&quot;:null}" fill="none" stroke="#ffffff" stroke-width="2.5"/><path d="M193.21785,212.29668c0,0 -1.76909,-0.91793 -2.9243,-3.04305c-1.1552,-2.12512 -1.61409,-3.16371 -1.61409,-3.16371" data-paper-data="{&quot;origPos&quot;:null,&quot;index&quot;:null,&quot;origRot&quot;:0}" fill="none" stroke="#ff0000" stroke-width="2"/><path d="M188.73965,181.48718c0,0 0.45888,-1.03859 1.61409,-3.16371c1.15521,-2.12512 2.92429,-3.04305 2.92429,-3.04305" data-paper-data="{&quot;origPos&quot;:null,&quot;index&quot;:null,&quot;origRot&quot;:0}" fill="none" stroke="#ff0000" stroke-width="2"/></g><text transform="translate(188.2731,163.41461) scale(0.42597,0.42597)" font-size="40" xml:space="preserve" data-paper-data="{&quot;origPos&quot;:null}" fill="#ffffff" fill-rule="nonzero" stroke="none" stroke-width="1" stroke-linecap="butt" stroke-linejoin="miter" stroke-miterlimit="10" stroke-dasharray="" stroke-dashoffset="0" font-family="Sans Serif" font-weight="normal" text-anchor="start" style="mix-blend-mode: normal"><tspan x="0" dy="0">battery: 51%</tspan></text><text transform="translate(185.71003,137.94855) scale(0.29493,0.29493)" font-size="40" xml:space="preserve" data-paper-data="{&quot;origPos&quot;:null}" fill="#ffffff" fill-rule="nonzero" stroke="none" stroke-width="1" stroke-linecap="butt" stroke-linejoin="miter" stroke-miterlimit="10" stroke-dasharray="" stroke-dashoffset="0" font-family="Sans Serif" font-weight="normal" text-anchor="start" style="mix-blend-mode: normal"><tspan x="0" dy="0">charging at 150 kW</tspan></text><path d="M227.83333,246.66667c0,-1.95266 1.58295,-3.53561 3.53561,-3.53561c1.95266,0 3.53561,1.58295 3.53561,3.53561c0,1.95266 -1.58295,3.53561 -3.53561,3.53561c-1.95266,0 -3.53561,-1.58295 -3.53561,-3.53561z" data-paper-data="{&quot;origPos&quot;:null}" fill="#ffffff" stroke="none" stroke-width="NaN" stroke-linecap="butt"/><path d="M236.56838,246.66667c0,-1.95267 1.58295,-3.53561 3.53561,-3.53561c1.95267,0 3.53561,1.58295 3.53561,3.53561c0,1.95267 -1.58295,3.53561 -3.53561,3.53561c-1.95267,0 -3.53561,-1.58295 -3.53561,-3.53561z" data-paper-data="{&quot;origPos&quot;:null}" fill="#c3c3c3" stroke="none" stroke-width="NaN" stroke-linecap="butt"/><path d="M245.09544,246.66667c0,-1.95267 1.58295,-3.53561 3.53561,-3.53561c1.95267,0 3.53561,1.58295 3.53561,3.53561c0,1.95267 -1.58295,3.53561 -3.53561,3.53561c-1.95267,0 -3.53561,-1.58295 -3.53561,-3.53561z" data-paper-data="{&quot;origPos&quot;:null}" fill="#c3c3c3" stroke="none" stroke-width="NaN" stroke-linecap="butt"/><text transform="translate(179,125.07465) scale(0.25771,0.25771)" font-size="40" xml:space="preserve" data-paper-data="{&quot;origPos&quot;:null}" fill="#ffffff" fill-rule="nonzero" stroke="none" stroke-width="1" stroke-linecap="butt" stroke-linejoin="miter" stroke-miterlimit="10" stroke-dasharray="" stroke-dashoffset="0" font-family="Sans Serif" font-weight="normal" text-anchor="start" style="mix-blend-mode: normal"><tspan x="0" dy="0">plugged in and charging</tspan></text><text transform="translate(180.97995,114.13166) scale(0.28443,0.28443)" font-size="40" xml:space="preserve" data-paper-data="{&quot;origPos&quot;:null}" fill="#ffffff" fill-rule="nonzero" stroke="none" stroke-width="1" stroke-linecap="butt" stroke-linejoin="miter" stroke-miterlimit="10" stroke-dasharray="" stroke-dashoffset="0" font-family="Sans Serif" font-weight="normal" text-anchor="start" style="mix-blend-mode: normal"><tspan x="0" dy="0">cabin temprature: 62â°</tspan></text><text transform="translate(177.43688,148.68041) scale(0.19812,0.19812)" font-size="40" xml:space="preserve" data-paper-data="{&quot;origPos&quot;:null}" fill="#ffffff" fill-rule="nonzero" stroke="none" stroke-width="1" stroke-linecap="butt" stroke-linejoin="miter" stroke-miterlimit="10" stroke-dasharray="" stroke-dashoffset="0" font-family="Sans Serif" font-weight="normal" text-anchor="start" style="mix-blend-mode: normal"><tspan x="0" dy="0">charging at: 7 miles per a minuet</tspan></text></g></g></svg>