<svg version="1.1" xmlns="http://www.w3.org/2000/svg" xmlns:xlink="http://www.w3.org/1999/xlink" width="59.40597" height="27.77273" viewBox="0,0,59.40597,27.77273"><defs><radialGradient cx="217.6872" cy="202.5324" r="7.7174" fx="217.6872" fy="202.5324" gradientUnits="userSpaceOnUse" id="color-1"><stop offset="0" stop-color="#000000"/><stop offset="1" stop-color="#000000" stop-opacity="0"/></radialGradient></defs><g transform="translate(-226.364,-164.92237)"><g stroke="none" stroke-miterlimit="10"><path d="M235.189,172.017v-0.017h9.605c0.163,-0.011 0.327,-0.017 0.49,-0.018c0.117,0.003 0.233,0.009 0.35,0.018h0.479v0.025c4.152,0.426 7.309,3.922 7.309,8.096c-0.004,4.17 -3.16,7.662 -7.309,8.086v0.023h-0.181c-0.216,0.018 -0.432,0.028 -0.648,0.029c-0.196,-0.003 -0.391,-0.012 -0.586,-0.029h-9.509v-0.005c-0.228,0.021 -0.457,0.032 -0.687,0.034c-4.495,0 -8.138,-3.644 -8.138,-8.139c0,-4.494 3.643,-8.138 8.138,-8.138c0.23,0.002 0.459,0.014 0.687,0.035z" fill="#ff0000" stroke-width="1.25667" stroke-linecap="round"/><g stroke-linecap="round"><path d="M236.881,172.497c2.622,0 4.997,1.064 6.718,2.785c1.72,1.72 2.785,4.096 2.785,6.718c0,2.622 -1.065,4.998 -2.785,6.718c-1.721,1.72 -4.096,2.785 -6.718,2.785c-2.622,0 -4.998,-1.065 -6.718,-2.785c-1.721,-1.72 -2.786,-4.096 -2.786,-6.718c0,-2.622 1.065,-4.998 2.786,-6.718c1.72,-1.721 4.096,-2.785 6.718,-2.785z" fill="url(#color-1)" stroke-width="1.47564"/><path d="M237.18,172.397c2.129,0 4.059,0.865 5.456,2.262c1.397,1.397 2.262,3.327 2.262,5.456c0,2.129 -0.865,4.058 -2.262,5.455c-1.397,1.397 -3.327,2.262 -5.456,2.262c-2.129,0 -4.058,-0.865 -5.455,-2.262c-1.397,-1.397 -2.262,-3.326 -2.262,-5.455c0,-2.129 0.865,-4.059 2.262,-5.456c1.397,-1.397 3.326,-2.262 5.455,-2.262z" fill="#ffffff" stroke-width="1.19832"/></g><text transform="translate(253.79838,186.53601) scale(0.5,0.5)" font-size="40" xml:space="preserve" fill="#ff0000" stroke-width="1" stroke-linecap="butt" font-family="Sans Serif" font-weight="normal" text-anchor="start"><tspan x="0" dy="0">NO</tspan></text></g></g></svg>