<svg version="1.1" xmlns="http://www.w3.org/2000/svg" xmlns:xlink="http://www.w3.org/1999/xlink" width="128.96109" height="112.48929" viewBox="0,0,128.96109,112.48929"><g transform="translate(-90.37039,-136.0106)"><g data-paper-data="{&quot;isPaintingLayer&quot;:true}" fill-rule="nonzero" stroke="#000000" stroke-width="2" stroke-linecap="butt" stroke-linejoin="miter" stroke-miterlimit="10" stroke-dasharray="" stroke-dashoffset="0" style="mix-blend-mode: normal"><path d="M185.16607,175.8241c-6.97962,-8.32221 -6.29146,-20.39115 1.53703,-26.95671c7.82852,-6.5656 19.8329,-5.14156 26.81253,3.18063c6.97962,8.32221 6.29146,20.39115 -1.53703,26.95671c-7.82852,6.5656 -19.8329,5.14156 -26.81253,-3.18063z" fill="#b5e6ff"/><path d="M180.99643,220.65037c-5.67834,-6.77061 -5.13592,-16.57478 1.21151,-21.89825c6.34746,-5.32344 16.09629,-4.15029 21.77463,2.62032c5.67834,6.77061 5.13592,16.57478 -1.21151,21.89825c-6.34746,5.32344 -16.09629,4.15029 -21.77463,-2.62032z" fill="#6ca9c7"/><path d="M153.36838,242.17437c-4.9432,-5.89405 -4.66245,-14.26839 0.6271,-18.70457c5.28954,-4.43621 13.58481,-3.25438 18.52802,2.63968c4.9432,5.89405 4.66245,14.26839 -0.6271,18.70457c-5.28954,4.43621 -13.58481,3.25438 -18.52802,-2.63968z" fill="#2d6b89"/><path d="M115.41665,239.97683c-4.25876,-5.07797 -3.93772,-12.35916 0.71707,-16.26302c4.65479,-3.90386 11.88066,-2.95205 16.13942,2.12589c4.25876,5.07797 3.93772,12.35916 -0.71707,16.26302c-4.65479,3.90386 -11.88066,2.95205 -16.13942,-2.12589z" fill="#006192"/><path d="M93.27188,207.86637c-3.01662,-3.59688 -2.37469,-9.10204 1.43376,-12.29613c3.80847,-3.19405 9.34129,-2.8675 12.35792,0.72935c3.01662,3.59688 2.37469,9.10204 -1.43376,12.29613c-3.80847,3.19405 -9.34129,2.8675 -12.35792,-0.72935z" fill="#004b70"/><path d="M93.62685,171.45992c-2.66173,-3.17374 -2.24666,-7.90428 0.92705,-10.56602c3.17374,-2.66173 7.90428,-2.24666 10.56602,0.92705c2.66173,3.17374 2.24666,7.90428 -0.92705,10.56602c-3.17374,2.66173 -7.90428,2.24666 -10.56602,-0.92705z" fill="#002030"/><path d="M115.64924,144.28941c-1.83363,-2.18634 -1.54772,-5.44517 0.63864,-7.27881c2.18634,-1.83363 5.44517,-1.54772 7.27881,0.63864c1.83363,2.18634 1.54772,5.44517 -0.63864,7.27881c-2.18634,1.83363 -5.44517,1.54772 -7.27881,-0.63864z" fill="#000000"/></g></g></svg>