<svg version="1.1" xmlns="http://www.w3.org/2000/svg" xmlns:xlink="http://www.w3.org/1999/xlink" width="238" height="238"><g transform="translate(-121,-61)"><g data-paper-data="{&quot;isPaintingLayer&quot;:true}" fill="none" fill-rule="nonzero" stroke="none" stroke-width="none" stroke-linecap="none" stroke-linejoin="miter" stroke-miterlimit="10" stroke-dasharray="" stroke-dashoffset="0" font-family="none" font-weight="none" font-size="none" text-anchor="none" style="mix-blend-mode: normal"><path d="M122,298v-236h236v236z" data-paper-data="{&quot;origPos&quot;:null}" fill="#ffffff" stroke="#000000" stroke-width="2" stroke-linecap="butt"/><path d="M182.5,237.5v-115h115v115z" data-paper-data="{&quot;origPos&quot;:null}" fill="#ffffff" stroke="#000000" stroke-width="2" stroke-linecap="butt"/><g data-paper-data="{&quot;origPos&quot;:null}"><path d="M233,199.5c0,4.97056 -6.04416,9 -13.5,9c-7.45584,0 -13.5,-4.02944 -13.5,-9c0,-4.97056 6.04416,-9 13.5,-9c7.45584,0 13.5,4.02944 13.5,9z" data-paper-data="{&quot;origPos&quot;:null}" fill="#d4d4d4" stroke="#000000" stroke-width="0" stroke-linecap="butt"/><path d="M274,199.5c0,4.97056 -6.04415,9 -13.5,9c-7.45585,0 -13.5,-4.02944 -13.5,-9c0,-4.97056 6.04415,-9 13.5,-9c7.45585,0 13.5,4.02944 13.5,9z" data-paper-data="{&quot;origPos&quot;:null}" fill="#d4d4d4" stroke="#000000" stroke-width="0" stroke-linecap="butt"/><path d="M228,199.5l5,-48h39l-3,45" data-paper-data="{&quot;origPos&quot;:null}" fill="none" stroke="#d4d4d4" stroke-width="9" stroke-linecap="round"/></g><path d="M267.66667,220.96667c0,-7.45584 6.04416,-13.5 13.5,-13.5c7.45584,0 13.5,6.04416 13.5,13.5c0,7.45584 -6.04416,13.5 -13.5,13.5c-7.45584,0 -13.5,-6.04416 -13.5,-13.5z" data-paper-data="{&quot;origPos&quot;:null}" fill="#ffffff" stroke="#000000" stroke-width="2" stroke-linecap="butt"/><text transform="translate(187.49004,250.07914) scale(0.35356,0.35356)" font-size="40" xml:space="preserve" data-paper-data="{&quot;origPos&quot;:null}" fill="#000000" fill-rule="nonzero" stroke="none" stroke-width="1" stroke-linecap="butt" stroke-linejoin="miter" stroke-miterlimit="10" stroke-dasharray="" stroke-dashoffset="0" font-family="Sans Serif" font-weight="normal" text-anchor="start" style="mix-blend-mode: normal"><tspan x="0" dy="0">untitled playlist</tspan></text><path d="M276.41667,227.3v-11.5h11.5v11.5z" fill="#000000" stroke="#000000" stroke-width="2" stroke-linecap="butt"/></g></g></svg>