<svg version="1.1" xmlns="http://www.w3.org/2000/svg" xmlns:xlink="http://www.w3.org/1999/xlink" width="133.51792" height="124.23947" viewBox="0,0,133.51792,124.23947"><g transform="translate(-87.30547,-122.80731)"><g stroke="#000000" stroke-width="2" stroke-miterlimit="10"><path d="M182.90915,200.3302c1.13019,-10.80264 10.28415,-18.69807 20.44593,-17.63494c10.16182,1.06312 17.48339,10.68225 16.35323,21.48488c-1.13019,10.80264 -10.28415,18.69807 -20.44593,17.63494c-10.16182,-1.06312 -17.48339,-10.68225 -16.35323,-21.48488z" fill="#b5e6ff"/><path d="M147.78785,228.49532c0.91947,-8.78859 8.34412,-15.21436 16.58343,-14.35238c8.2393,0.86201 14.17322,8.68536 13.25375,17.47394c-0.91947,8.78859 -8.34412,15.21436 -16.58343,14.35238c-8.2393,-0.86201 -14.17322,-8.68536 -13.25375,-17.47394z" fill="#6ca9c7"/><path d="M113.10914,223.59842c0.80043,-7.65078 7.01536,-13.27065 13.88144,-12.55229c6.86609,0.71833 11.78327,7.50284 10.98284,15.15363c-0.80043,7.65078 -7.01536,13.27065 -13.88144,12.55229c-6.86609,-0.71833 -11.78327,-7.50284 -10.98284,-15.15363z" fill="#2d6b89"/><path d="M88.30547,194.78972c0.68961,-6.59146 6.14676,-11.42242 12.18891,-10.79029c6.04215,0.63213 10.38125,6.48801 9.69166,13.07944c-0.68961,6.59146 -6.14676,11.42242 -12.18891,10.79029c-6.04215,-0.63213 -10.38125,-6.48801 -9.69166,-13.07944z" fill="#006192"/><path d="M95.99292,156.54871c0.48846,-4.66893 4.89202,-8.03458 9.8356,-7.5174c4.94357,0.51721 8.55515,4.7214 8.06671,9.39033c-0.48846,4.66893 -4.89202,8.03458 -9.8356,7.5174c-4.94357,-0.51721 -8.55515,-4.7214 -8.06671,-9.39033z" fill="#004b70"/><path d="M122.4099,131.49479c0.43101,-4.11967 4.12003,-7.10989 8.23968,-6.67891c4.11967,0.43101 7.10989,4.12003 6.67891,8.23968c-0.43101,4.11967 -4.12003,7.10989 -8.23968,6.67891c-4.11967,-0.43101 -7.10989,-4.12003 -6.67891,-8.23968z" fill="#002030"/><path d="M157.25055,128.43679c0.29691,-2.83798 2.83823,-4.89793 5.67623,-4.60102c2.83798,0.29691 4.89793,2.83823 4.60102,5.67623c-0.29691,2.83798 -2.83823,4.89793 -5.67623,4.60102c-2.83798,-0.29691 -4.89793,-2.83823 -4.60102,-5.67623z" fill="#000000"/></g></g></svg>