<svg version="1.1" xmlns="http://www.w3.org/2000/svg" xmlns:xlink="http://www.w3.org/1999/xlink" width="193" height="193"><g transform="translate(-143.5,-83.5)"><g data-paper-data="{&quot;isPaintingLayer&quot;:true}" fill="none" fill-rule="nonzero" stroke="none" stroke-width="none" stroke-linecap="none" stroke-linejoin="miter" stroke-miterlimit="10" stroke-dasharray="" stroke-dashoffset="0" font-family="none" font-weight="none" font-size="none" text-anchor="none" style="mix-blend-mode: normal"><path d="M143.5,276.5v-193h193v193z" data-paper-data="{&quot;origPos&quot;:null}" fill="#7d7d7d" stroke="none" stroke-width="0" stroke-linecap="butt"/><g data-paper-data="{&quot;origPos&quot;:null,&quot;origRot&quot;:0}" stroke-linecap="round"><path d="M216.00679,231.6628c0,0 -5.37459,-12.50863 -5.07721,-20.64087c0.22728,-6.21515 1.15954,-9.88851 1.31273,-16.10594c0.39,-15.82971 0.03598,-40.38784 0.03598,-40.38784l-3.99974,0.61944c0,0 -0.81937,-1.21411 -0.01507,-2.54997c0.93726,-1.55671 4.47761,-4.86186 4.47761,-4.86186c0,0 -1.6928,-23.17829 1.29038,-33.13217c2.74663,-9.1646 16.9099,-13.0085 16.9099,-13.0085c0,0 5.59486,-0.7009 9.10028,-0.52832c3.70501,0.18239 9.37552,1.43787 9.37552,1.43787c0,0 13.84533,5.21651 15.30298,11.71354c2.63848,11.76023 0.48883,33.58808 0.48883,33.58808c0,0 4.33289,3.81773 5.39583,5.41309c0.98213,1.47409 -0.15441,2.8158 -0.15441,2.8158l-5.58858,-2.95105c0,0 0.27347,34.60777 0.69015,41.417c0.46265,7.56033 1.41879,15.30393 1.05038,25.0923c-0.18378,4.88273 -4.71514,12.52531 -4.71514,12.52531c0,0 -11.52967,8.32576 -23.61889,8.04343c-10.86676,-0.25379 -22.26148,-8.49934 -22.26148,-8.49934z" data-paper-data="{&quot;origPos&quot;:null}" fill="#001a9c" stroke="#000000" stroke-width="0.5"/><path d="M215.33521,150.11379c0,0 1.38333,-0.25666 2.37644,10.24235c0.43977,4.64917 1.73992,12.38044 1.73992,12.38044c0,0 0.38787,12.59419 0.37529,20.00916c-0.01431,8.43917 -0.44422,20.61509 -0.44422,20.61509c0,0 -3.07613,-6.70067 -3.77304,-17.591c-0.88265,-13.79264 -0.27439,-45.65602 -0.27439,-45.65602z" data-paper-data="{&quot;origPos&quot;:null}" fill="#000000" stroke="#000000" stroke-width="0.5"/><path d="M263.26165,149.14822c0,0 0.81718,31.85871 0.02499,45.65686c-0.62549,10.89467 -3.65761,17.61537 -3.65761,17.61537c0,0 -0.50973,-12.17285 -0.57938,-20.61175c-0.0612,-7.41473 0.24408,-20.01119 0.24408,-20.01119c0,0 1.24941,-7.73962 1.6587,-12.39159c0.92425,-10.50529 2.30923,-10.25771 2.30923,-10.25771z" data-paper-data="{&quot;origPos&quot;:null,&quot;index&quot;:null}" fill="#000000" stroke="#000000" stroke-width="0.5"/><path d="M260.16728,139.05289c0,0 0.81306,3.66776 0.56696,6.27742c-0.73833,7.82898 -4.20005,41.01791 -4.20005,41.01791c-0.08677,14.23418 -1.94575,38.82164 -1.94575,38.82164c0,0 -1.14337,7.39442 -17.15689,7.03031c-8.98003,-0.20418 -14.77542,-6.72352 -14.77542,-6.72352c0,0 -0.15693,-23.82585 -1.03139,-38.42628c-0.96072,-16.04068 -3.15023,-33.73721 -3.87379,-41.02588c-0.24119,-2.42955 -0.22634,-6.22549 -0.22634,-6.22549c0,0 4.68206,-6.25915 21.80547,-6.42786c14.48829,-0.14276 20.83721,5.68173 20.83721,5.68173z" data-paper-data="{&quot;origPos&quot;:null}" fill="#000000" stroke="#000000" stroke-width="0.5"/><path d="M253.51938,109.13867c0,0 3.13816,8.49885 4.66291,14.32823c1.35082,5.16438 2.70539,13.8419 2.70539,13.8419" data-paper-data="{&quot;origPos&quot;:null}" fill="none" stroke="#000000" stroke-width="0.5"/><path d="M217.68474,136.69253c0,0 1.04811,-8.02203 2.39969,-12.67367c1.57326,-5.41463 5.09485,-13.11987 5.09485,-13.11987" data-paper-data="{&quot;origPos&quot;:null}" fill="none" stroke="#000000" stroke-width="0.5"/><path d="M215.34095,115.32712c0,0 1.64737,-3.81122 3.57686,-5.67134c2.25743,-2.17628 7.15157,-4.67142 7.15157,-4.67142" data-paper-data="{&quot;origPos&quot;:null}" fill="none" stroke="#ffffff" stroke-width="2.5"/><path d="M252.4444,104.89789c0,0 5.87176,3.56273 8.17437,5.75082c1.79197,1.70284 2.3175,4.21919 2.3175,4.21919" data-paper-data="{&quot;origPos&quot;:null}" fill="none" stroke="#ffffff" stroke-width="2.5"/><path d="M262.74901,229.44876c0,0 -1.14883,2.23197 -3.82065,3.69573c-2.67182,1.46375 -3.97804,2.04601 -3.97804,2.04601" data-paper-data="{&quot;origPos&quot;:null,&quot;index&quot;:null,&quot;origRot&quot;:0}" fill="none" stroke="#ff0000" stroke-width="2"/><path d="M223.96288,235.21629c0,0 -1.30999,-0.57367 -3.99136,-2.01988c-2.68136,-1.44621 -3.84481,-3.67059 -3.84481,-3.67059" data-paper-data="{&quot;origPos&quot;:null,&quot;index&quot;:null,&quot;origRot&quot;:0}" fill="none" stroke="#ff0000" stroke-width="2"/></g><path d="M227.83333,246.66667c0,-1.95266 1.58295,-3.53561 3.53561,-3.53561c1.95266,0 3.53561,1.58295 3.53561,3.53561c0,1.95266 -1.58295,3.53561 -3.53561,3.53561c-1.95266,0 -3.53561,-1.58295 -3.53561,-3.53561z" data-paper-data="{&quot;origPos&quot;:null}" fill="#c3c3c3" stroke="none" stroke-width="NaN" stroke-linecap="butt"/><path d="M236.56838,246.66667c0,-1.95267 1.58295,-3.53561 3.53561,-3.53561c1.95267,0 3.53561,1.58295 3.53561,3.53561c0,1.95267 -1.58295,3.53561 -3.53561,3.53561c-1.95267,0 -3.53561,-1.58295 -3.53561,-3.53561z" data-paper-data="{&quot;origPos&quot;:null}" fill="#c3c3c3" stroke="none" stroke-width="NaN" stroke-linecap="butt"/><path d="M245.09544,246.66667c0,-1.95267 1.58295,-3.53561 3.53561,-3.53561c1.95267,0 3.53561,1.58295 3.53561,3.53561c0,1.95267 -1.58295,3.53561 -3.53561,3.53561c-1.95267,0 -3.53561,-1.58295 -3.53561,-3.53561z" data-paper-data="{&quot;origPos&quot;:null}" fill="#ffffff" stroke="none" stroke-width="NaN" stroke-linecap="butt"/><text transform="translate(269.83333,117.54722) scale(0.1261,0.1261)" font-size="40" xml:space="preserve" data-paper-data="{&quot;origPos&quot;:null}" fill="#ffffff" fill-rule="nonzero" stroke="none" stroke-width="1" stroke-linecap="butt" stroke-linejoin="miter" stroke-miterlimit="10" stroke-dasharray="" stroke-dashoffset="0" font-family="Sans Serif" font-weight="normal" text-anchor="start" style="mix-blend-mode: normal"><tspan x="0" dy="0">front trunk</tspan></text><text transform="translate(270,230.3895) scale(0.15422,0.15422)" font-size="40" xml:space="preserve" data-paper-data="{&quot;origPos&quot;:null}" fill="#ffffff" fill-rule="nonzero" stroke="none" stroke-width="1" stroke-linecap="butt" stroke-linejoin="miter" stroke-miterlimit="10" stroke-dasharray="" stroke-dashoffset="0" font-family="Sans Serif" font-weight="normal" text-anchor="start" style="mix-blend-mode: normal"><tspan x="0" dy="0">back trunk</tspan></text><text transform="translate(174.5,225.97822) scale(0.14652,0.14652)" font-size="40" xml:space="preserve" data-paper-data="{&quot;origPos&quot;:null}" fill="#ffffff" fill-rule="nonzero" stroke="none" stroke-width="1" stroke-linecap="butt" stroke-linejoin="miter" stroke-miterlimit="10" stroke-dasharray="" stroke-dashoffset="0" font-family="Sans Serif" font-weight="normal" text-anchor="start" style="mix-blend-mode: normal"><tspan x="0" dy="0">charge port</tspan></text><text transform="translate(178.9,166.36818) scale(0.13873,0.13873)" font-size="40" xml:space="preserve" data-paper-data="{&quot;origPos&quot;:null}" fill="#ffffff" fill-rule="nonzero" stroke="none" stroke-width="1" stroke-linecap="butt" stroke-linejoin="miter" stroke-miterlimit="10" stroke-dasharray="" stroke-dashoffset="0" font-family="Sans Serif" font-weight="normal" text-anchor="start" style="mix-blend-mode: normal"><tspan x="0" dy="0">driver door</tspan></text><text transform="translate(267.5,166.28832) scale(0.11098,0.11098)" font-size="40" xml:space="preserve" data-paper-data="{&quot;origPos&quot;:null}" fill="#ffffff" fill-rule="nonzero" stroke="none" stroke-width="1" stroke-linecap="butt" stroke-linejoin="miter" stroke-miterlimit="10" stroke-dasharray="" stroke-dashoffset="0" font-family="Sans Serif" font-weight="normal" text-anchor="start" style="mix-blend-mode: normal"><tspan x="0" dy="0">passenger door</tspan></text><text transform="translate(178,204.85731) scale(0.10617,0.10617)" font-size="40" xml:space="preserve" data-paper-data="{&quot;origPos&quot;:null}" fill="#ffffff" fill-rule="nonzero" stroke="none" stroke-width="1" stroke-linecap="butt" stroke-linejoin="miter" stroke-miterlimit="10" stroke-dasharray="" stroke-dashoffset="0" font-family="Sans Serif" font-weight="normal" text-anchor="start" style="mix-blend-mode: normal"><tspan x="0" dy="0">left falcon-wing</tspan></text><text transform="translate(268.5,196.42501) scale(0.10235,0.10235)" font-size="40" xml:space="preserve" data-paper-data="{&quot;origPos&quot;:null}" fill="#ffffff" fill-rule="nonzero" stroke="none" stroke-width="1" stroke-linecap="butt" stroke-linejoin="miter" stroke-miterlimit="10" stroke-dasharray="" stroke-dashoffset="0" font-family="Sans Serif" font-weight="normal" text-anchor="start" style="mix-blend-mode: normal"><tspan x="0" dy="0">right falcon-wing</tspan></text><path d="M218.22799,164.14056l-8.8,1" fill="none" stroke="#ffffff" stroke-width="0.5" stroke-linecap="round"/><path d="M221.82799,189.9139l-12,12.33333" fill="none" stroke="#ffffff" stroke-width="0.5" stroke-linecap="round"/><path d="M209.49466,224.35833l5.33333,5" fill="none" stroke="#ffffff" stroke-width="0.5" stroke-linecap="round"/><path d="M240.49466,224.35833l28,3.33334" fill="none" stroke="#ffffff" stroke-width="0.5" stroke-linecap="round"/><path d="M267.49466,194.24723l-6,-6.66666" fill="none" stroke="#ffffff" stroke-width="0.5" stroke-linecap="round"/><path d="M266.82799,164.9139l-5,-1" fill="none" stroke="#ffffff" stroke-width="0.5" stroke-linecap="round"/><path d="M269.49466,116.80279l-26,3.33333" fill="none" stroke="#ffffff" stroke-width="0.5" stroke-linecap="round"/><path d="M179.66667,138.40001v-10.05384h10.05384v10.05384z" data-paper-data="{&quot;origPos&quot;:null}" fill="#ffffff" stroke="none" stroke-width="0" stroke-linecap="butt"/><path d="M181.0473,129.38503c0,0 -0.9813,-6.34811 3.4585,-6.90775c5.14034,-0.64794 4.20574,6.37325 4.20574,6.37325" data-paper-data="{&quot;origPos&quot;:null,&quot;origRot&quot;:0}" fill="none" stroke="#ffffff" stroke-width="2.5" stroke-linecap="round"/><path d="M193,139.06668v-10.05384h10.05384v10.05384z" data-paper-data="{&quot;origPos&quot;:null}" fill="#ffffff" stroke="none" stroke-width="0" stroke-linecap="butt"/><path d="M200.0473,130.0517c0,0 -0.9813,-6.34811 3.4585,-6.90776c5.14034,-0.64795 4.20575,6.37325 4.20575,6.37325" data-paper-data="{&quot;origPos&quot;:null,&quot;origRot&quot;:0}" fill="none" stroke="#ffffff" stroke-width="2.5" stroke-linecap="round"/></g></g></svg>