<svg version="1.1" xmlns="http://www.w3.org/2000/svg" xmlns:xlink="http://www.w3.org/1999/xlink" width="128.29124" height="124.50254" viewBox="0,0,128.29124,124.50254"><g transform="translate(-85.5279,-129.32691)"><g data-paper-data="{&quot;isPaintingLayer&quot;:true}" fill-rule="nonzero" stroke="#000000" stroke-width="2" stroke-linecap="butt" stroke-linejoin="miter" stroke-miterlimit="10" stroke-dasharray="" stroke-dashoffset="0" style="mix-blend-mode: normal"><path d="M176.85945,165.47621c-9.62202,-5.03896 -13.57965,-16.4613 -8.83964,-25.5125c4.74003,-9.05124 16.38278,-12.30382 26.0048,-7.26488c9.62202,5.03896 13.57965,16.4613 8.83964,25.5125c-4.74003,9.05124 -16.38278,12.30382 -26.0048,7.26488z" fill="#b5e6ff"/><path d="M190.06663,208.51516c-7.82808,-4.09949 -11.05841,-13.37208 -7.21517,-20.71093c3.84328,-7.33883 13.30478,-9.96485 21.13287,-5.86536c7.82808,4.09949 11.05841,13.37208 7.21517,20.71093c-3.84328,7.33883 -13.30478,9.96485 -21.13287,5.86536z" fill="#6ca9c7"/><path d="M172.71142,238.93535c-6.81463,-3.56874 -9.74267,-11.41954 -6.53993,-17.53521c3.20272,-6.1157 11.32339,-8.1804 18.13803,-4.61165c6.81463,3.56874 9.74267,11.41954 6.53993,17.53521c-3.20272,6.1157 -11.32339,8.1804 -18.13803,4.61165z" fill="#2d6b89"/><path d="M136.78017,251.34941c-5.87107,-3.07463 -8.34576,-9.9299 -5.52736,-15.3117c2.81839,-5.38181 9.86261,-7.25215 15.73367,-4.17755c5.87107,3.07463 8.34576,9.9299 5.52736,15.3117c-2.81839,5.38181 -9.86261,7.25215 -15.73367,4.17755z" fill="#006192"/><path d="M104.07973,230.08552c-4.15867,-2.17785 -5.66058,-7.51293 -3.35464,-11.91624c2.30597,-4.40328 7.54658,-6.20736 11.70525,-4.02955c4.15867,2.17785 5.66058,7.51293 3.35464,11.91624c-2.30597,4.40328 -7.54658,6.20736 -11.70525,4.02955z" fill="#004b70"/><path d="M90.55001,196.28459c-3.66943,-1.92165 -5.08627,-6.45407 -3.16465,-10.1235c1.92165,-3.66943 6.45407,-5.08627 10.1235,-3.16465c3.66943,1.92165 5.08627,6.45407 3.16465,10.1235c-1.92165,3.66943 -6.45407,5.08627 -10.1235,3.16465z" fill="#002030"/><path d="M100.57223,162.77672c-2.52782,-1.32379 -3.50389,-4.44613 -2.18009,-6.97396c1.32379,-2.52782 4.44613,-3.50389 6.97396,-2.18009c2.52782,1.32379 3.50389,4.44613 2.18009,6.97396c-1.32379,2.52782 -4.44613,3.50389 -6.97396,2.18009z" fill="#000000"/></g></g></svg>