<svg version="1.1" xmlns="http://www.w3.org/2000/svg" xmlns:xlink="http://www.w3.org/1999/xlink" width="63.97416" height="27.77273" viewBox="0,0,63.97416,27.77273"><defs><radialGradient cx="215.9872" cy="202.5324" r="7.7174" fx="215.9872" fy="202.5324" gradientUnits="userSpaceOnUse" id="color-1"><stop offset="0" stop-color="#000000"/><stop offset="1" stop-color="#000000" stop-opacity="0"/></radialGradient></defs><g transform="translate(-190.09384,-164.92237)"><g stroke="none" stroke-miterlimit="10"><path d="M235.147,171.968c0.23,0.002 0.459,0.013 0.688,0.034v-0.017h9.605c0.163,-0.011 0.326,-0.016 0.489,-0.017c0.117,0.003 0.233,0.009 0.35,0.017h0.479v0.026c4.152,0.425 7.309,3.922 7.31,8.095c-0.005,4.17 -3.161,7.662 -7.31,8.087v0.022h-0.181c-0.215,0.019 -0.432,0.028 -0.648,0.03c-0.196,-0.003 -0.391,-0.013 -0.586,-0.03h-9.508v-0.005c-0.229,0.021 -0.458,0.033 -0.688,0.034c-4.494,0 -8.138,-3.644 -8.138,-8.138c0,-4.495 3.644,-8.139 8.138,-8.139z" fill="#7dff82" stroke-width="1.25667" stroke-linecap="round"/><path d="M242.45,178.002c0.572,0 1.091,0.245 1.466,0.641c0.376,0.395 0.608,0.941 0.608,1.544c0,0.603 -0.232,1.149 -0.608,1.545c-0.375,0.395 -0.894,0.64 -1.466,0.64c-0.572,0 -1.09,-0.245 -1.466,-0.64c-0.375,-0.396 -0.608,-0.942 -0.608,-1.545c0,-0.603 0.233,-1.149 0.608,-1.544c0.376,-0.396 0.894,-0.641 1.466,-0.641z" fill="#ffffff" stroke-width="1.0293" stroke-linecap="round"/><g stroke-linecap="round"><path d="M235.181,172.497c2.622,0 4.997,1.064 6.718,2.785c1.72,1.72 2.785,4.096 2.785,6.718c0,2.622 -1.065,4.998 -2.785,6.718c-1.721,1.72 -4.096,2.785 -6.718,2.785c-2.622,0 -4.998,-1.065 -6.718,-2.785c-1.721,-1.72 -2.786,-4.096 -2.786,-6.718c0,-2.622 1.065,-4.998 2.786,-6.718c1.72,-1.721 4.096,-2.785 6.718,-2.785z" fill="url(#color-1)" stroke-width="1.47564"/><path d="M235.48,172.397c2.129,0 4.059,0.865 5.456,2.262c1.397,1.397 2.262,3.327 2.262,5.456c0,2.129 -0.865,4.058 -2.262,5.455c-1.397,1.397 -3.327,2.262 -5.456,2.262c-2.129,0 -4.058,-0.865 -5.455,-2.262c-1.397,-1.397 -2.262,-3.326 -2.262,-5.455c0,-2.129 0.865,-4.059 2.262,-5.456c1.397,-1.397 3.326,-2.262 5.455,-2.262z" fill="#ffffff" stroke-width="1.19832"/></g><text transform="translate(190.79839,186.53601) scale(0.5,0.5)" font-size="40" xml:space="preserve" fill="#7dff82" stroke-width="1" stroke-linecap="butt" font-family="Sans Serif" font-weight="normal" text-anchor="start"><tspan x="0" dy="0">YES</tspan></text></g></g></svg>