<svg version="1.1" xmlns="http://www.w3.org/2000/svg" xmlns:xlink="http://www.w3.org/1999/xlink" width="36.37387" height="36.3636" viewBox="0,0,36.37387,36.3636"><g transform="translate(-221.81307,-161.8182)"><g data-paper-data="{&quot;isPaintingLayer&quot;:true}" fill-rule="nonzero" stroke="none" stroke-width="0" stroke-linecap="butt" stroke-linejoin="miter" stroke-miterlimit="10" stroke-dasharray="" stroke-dashoffset="0" style="mix-blend-mode: normal"><path d="M222.21979,189.47698c0,0 -0.40672,-8.95742 -0.40672,-19.11614c0,-3.33333 1.38865,-8.54126 8.94796,-8.54126c10.47618,0 19.52283,0 19.52283,0c0,0 7.32108,-0.33323 7.72778,9.3547c0.28637,6.82102 -0.05023,10.26048 0.16331,17.08419c0.36879,9.69799 -7.89112,9.75972 -7.89112,9.75972c0,0 -7.90272,0.36812 -17.89596,0c-11.04131,-0.40672 -10.16814,-8.54126 -10.16814,-8.54126z" fill="#ff0000"/><path d="M222.21978,189.47682l35.79184,-18.3027c0,0 -0.05023,10.26048 0.16331,17.08419c0.36879,9.69799 -7.89112,9.75972 -7.89112,9.75972c0,0 -7.90272,0.36812 -17.89596,0c-11.04131,-0.40672 -10.16814,-8.54126 -10.16814,-8.54126z" fill="#ff7878"/><path d="M226.31824,179.99984c0,-7.55623 6.12551,-13.68175 13.68175,-13.68175c7.55623,0 13.68175,6.12551 13.68175,13.68175c0,7.55623 -6.12551,13.68175 -13.68175,13.68175c-7.55623,0 -13.68175,-6.12551 -13.68175,-13.68175z" fill="#fafafa"/><g><path d="M231.41992,180c0,-4.73865 3.84143,-8.58008 8.58008,-8.58008c4.73865,0 8.58008,3.84143 8.58008,8.58008c0,4.73865 -3.84143,8.58008 -8.58008,8.58008c-4.73865,0 -8.58008,-3.84143 -8.58008,-8.58008z" fill="#000000"/><path d="M240.23189,176.42883c0,-1.40879 1.14205,-2.55083 2.55083,-2.55083c1.40879,0 2.55083,1.14205 2.55083,2.55083c0,1.40879 -1.14205,2.55083 -2.55083,2.55083c-1.40879,0 -2.55083,-1.14205 -2.55083,-2.55083z" fill="#ffffff"/><path d="M245.00505,180.71887c0,-0.56565 0.45855,-1.0242 1.0242,-1.0242c0.56565,0 1.0242,0.45855 1.0242,1.0242c0,0.56565 -0.45855,1.0242 -1.0242,1.0242c-0.56565,0 -1.0242,-0.45855 -1.0242,-1.0242z" fill="#ffffff"/></g></g></g></svg>