<svg version="1.1" xmlns="http://www.w3.org/2000/svg" xmlns:xlink="http://www.w3.org/1999/xlink" width="116.62159" height="125.91118" viewBox="0,0,116.62159,125.91118"><g transform="translate(-98.82039,-127.12259)"><g data-paper-data="{&quot;isPaintingLayer&quot;:true}" fill-rule="nonzero" stroke="#000000" stroke-width="2" stroke-linecap="butt" stroke-linejoin="miter" stroke-miterlimit="10" stroke-dasharray="" stroke-dashoffset="0" style="mix-blend-mode: normal"><path d="M133.54738,158.89785c-6.51872,8.68796 -18.42835,10.75998 -26.60092,4.628c-8.1726,-6.132 -9.51331,-18.14597 -2.99462,-26.83394c6.51872,-8.68796 18.42835,-10.75998 26.60092,-4.628c8.1726,6.132 9.51331,18.14597 2.99462,26.83394z" fill="#b5e6ff"/><path d="M178.14865,152.77348c-5.30337,7.06817 -14.97435,8.76754 -21.60079,3.79567c-6.62642,-4.97191 -7.69898,-14.73231 -2.39562,-21.8005c5.30337,-7.06817 14.97435,-8.76754 21.60079,-3.79567c6.62642,4.97191 7.69898,14.73231 2.39562,21.8005z" fill="#6ca9c7"/><path d="M205.38706,174.78848c-4.61675,6.1531 -12.83586,7.78243 -18.35785,3.63916c-5.52203,-4.14324 -6.25587,-12.49009 -1.6391,-18.6432c4.61675,-6.1531 12.83586,-7.78243 18.35785,-3.63916c5.52203,4.14324 6.25587,12.49009 1.6391,18.6432z" fill="#2d6b89"/><path d="M211.87,212.24692c-3.97754,5.30114 -11.14123,6.64286 -16.00059,2.9968c-4.85937,-3.64606 -5.57425,-10.89919 -1.59675,-16.20033c3.97754,-5.30114 11.14123,-6.64286 16.00059,-2.9968c4.85937,3.64606 5.57425,10.89919 1.59675,16.20033z" fill="#006192"/><path d="M185.63087,241.10831c-2.81741,3.75497 -8.32443,4.38066 -12.3003,1.39753c-3.97583,-2.98314 -4.91493,-8.44545 -2.09757,-12.20042c2.81741,-3.75497 8.32443,-4.38066 12.3003,-1.39753c3.97583,2.98314 4.91493,8.44545 2.09757,12.20042z" fill="#004b70"/><path d="M150.09594,249.03453c-2.48596,3.31322 -7.18709,3.98384 -10.50031,1.4979c-3.31322,-2.48596 -3.98384,-7.18709 -1.4979,-10.50031c2.48596,-3.31322 7.18709,-3.98384 10.50031,-1.4979c3.31322,2.48596 3.98384,7.18709 1.4979,10.50031z" fill="#002030"/><path d="M118.63235,233.76151c-1.71254,2.28244 -4.9511,2.74444 -7.23354,1.03188c-2.28244,-1.71254 -2.74444,-4.9511 -1.03188,-7.23354c1.71254,-2.28244 4.9511,-2.74444 7.23354,-1.03188c2.28244,1.71254 2.74444,4.9511 1.03188,7.23354z" fill="#000000"/></g></g></svg>