<svg version="1.1" xmlns="http://www.w3.org/2000/svg" xmlns:xlink="http://www.w3.org/1999/xlink" width="63.33116" height="27.77273" viewBox="0,0,63.33116,27.77273"><defs><radialGradient cx="216.6372" cy="202.5324" r="7.7174" fx="216.6372" fy="202.5324" gradientUnits="userSpaceOnUse" id="color-1"><stop offset="0" stop-color="#000000"/><stop offset="1" stop-color="#000000" stop-opacity="0"/></radialGradient></defs><g transform="translate(-190.09384,-164.92237)"><g stroke="none" stroke-miterlimit="10"><path d="M235.192,171.995v-0.017h9.605c0.163,-0.011 0.326,-0.017 0.49,-0.018c0.116,0.004 0.233,0.009 0.349,0.018h0.48v0.026c4.152,0.425 7.309,3.921 7.309,8.095c-0.005,4.17 -3.161,7.662 -7.309,8.087v0.022h-0.181c-0.216,0.018 -0.432,0.028 -0.648,0.029c-0.196,-0.003 -0.392,-0.012 -0.586,-0.029h-9.509v-0.005c-0.228,0.021 -0.458,0.032 -0.687,0.034c-4.495,0 -8.138,-3.644 -8.138,-8.139c0,-4.494 3.643,-8.138 8.138,-8.138c0.229,0.002 0.459,0.014 0.687,0.035z" fill="#7dff82" stroke-width="1.25667" stroke-linecap="round"/><path d="M237.295,175.474c0.13,0.001 0.261,0.007 0.39,0.019v-0.01h5.46c0.092,-0.006 0.185,-0.009 0.278,-0.01c0.066,0.002 0.132,0.006 0.199,0.01h0.272v0.015c2.36,0.242 4.154,2.229 4.154,4.601c-0.002,2.37 -1.796,4.355 -4.154,4.596v0.013h-0.103c-0.122,0.01 -0.245,0.016 -0.368,0.017c-0.111,-0.002 -0.222,-0.008 -0.333,-0.017h-5.405v-0.003c-0.129,0.012 -0.26,0.018 -0.39,0.019c-2.555,0 -4.626,-2.071 -4.625,-4.625c-0.001,-2.555 2.07,-4.626 4.625,-4.626z" fill="#fefefe" stroke-width="0.71424" stroke-linecap="round"/><g stroke-linecap="round"><path d="M235.831,172.497c2.622,0 4.997,1.064 6.718,2.785c1.72,1.72 2.785,4.096 2.785,6.718c0,2.622 -1.065,4.998 -2.785,6.718c-1.721,1.72 -4.096,2.785 -6.718,2.785c-2.622,0 -4.998,-1.065 -6.718,-2.785c-1.721,-1.72 -2.786,-4.096 -2.786,-6.718c0,-2.622 1.065,-4.998 2.786,-6.718c1.72,-1.721 4.096,-2.785 6.718,-2.785z" fill="url(#color-1)" stroke-width="1.47564"/><path d="M236.13,172.397c2.129,0 4.059,0.865 5.456,2.262c1.397,1.397 2.262,3.327 2.262,5.456c0,2.129 -0.865,4.058 -2.262,5.455c-1.397,1.397 -3.327,2.262 -5.456,2.262c-2.129,0 -4.058,-0.865 -5.455,-2.262c-1.397,-1.397 -2.262,-3.326 -2.262,-5.455c0,-2.129 0.865,-4.059 2.262,-5.456c1.397,-1.397 3.326,-2.262 5.455,-2.262z" fill="#ffffff" stroke-width="1.19832"/></g><text transform="translate(190.79839,186.53601) scale(0.5,0.5)" font-size="40" xml:space="preserve" fill="#7dff82" stroke-width="1" stroke-linecap="butt" font-family="Sans Serif" font-weight="normal" text-anchor="start"><tspan x="0" dy="0">YES</tspan></text></g></g></svg>