<svg version="1.1" xmlns="http://www.w3.org/2000/svg" xmlns:xlink="http://www.w3.org/1999/xlink" width="45.59914" height="45.59914"><g transform="translate(-180.30663,-201.97051)"><g data-paper-data="{&quot;isPaintingLayer&quot;:true}" fill="none" fill-rule="nonzero" stroke="none" stroke-width="0" stroke-linecap="butt" stroke-linejoin="miter" stroke-miterlimit="10" stroke-dasharray="" stroke-dashoffset="0" font-family="none" font-weight="none" font-size="none" text-anchor="none" style="mix-blend-mode: normal"><path d="M180.30664,224.77008c0,-12.59185 10.20772,-22.79956 22.79957,-22.79956c12.59185,0 22.79956,10.20772 22.79956,22.79957c0,12.59185 -10.20771,22.79957 -22.79956,22.79957c-12.59185,0 -22.79956,-10.20772 -22.79956,-22.79956z" data-paper-data="{&quot;origPos&quot;:null}" fill="#ffffff"/><path d="M180.30664,224.77008c0,-12.59185 10.20772,-22.79956 22.79957,-22.79956c12.59185,0 22.79957,10.20772 22.79957,22.79957c0,12.59185 -10.20772,22.79957 -22.79956,22.79957c-12.59185,0 -22.79956,-10.20772 -22.79956,-22.79956z" data-paper-data="{&quot;origPos&quot;:null}" fill="#ff0000"/><path d="M215.77312,219.95139c2.03062,0.02438 5.17282,2.59977 5.15335,4.22376c-0.01785,1.4868 -0.02789,2.32295 -0.04571,3.80972c-0.02025,1.68753 -12.31756,1.71867 -12.29872,0.14551c0.01922,-1.60117 0.03003,-2.5016 0.04925,-4.10278c0.01949,-1.62402 4.37415,-4.10942 7.14183,-4.0762z" data-paper-data="{&quot;origRot&quot;:0,&quot;origPos&quot;:null}" fill="#ffffff"/><path d="M192.32863,219.67c2.03062,0.02438 5.17282,2.59977 5.15335,4.22376c-0.01785,1.4868 -0.02789,2.32295 -0.04571,3.80972c-0.02025,1.68753 -12.31755,1.71866 -12.29871,0.1455c0.01922,-1.60117 0.03003,-2.5016 0.04925,-4.10278c0.01949,-1.62402 4.37412,-4.10941 7.14183,-4.0762z" data-paper-data="{&quot;origRot&quot;:0,&quot;origPos&quot;:null}" fill="#ffffff"/><path d="M191.45208,219.89952c0,0 7.78273,-1.38225 14.4108,-1.15635c4.15507,0.14161 9.88939,1.45966 9.88939,1.45966l1.72524,7.18585c0,0 -7.2689,-4.64154 -12.98558,-4.71016c-5.7734,-0.0693 -15.58766,5.24653 -15.58766,5.24653z" data-paper-data="{&quot;origRot&quot;:0,&quot;origPos&quot;:null}" fill="#ffffff"/></g></g></svg>