<svg version="1.1" xmlns="http://www.w3.org/2000/svg" xmlns:xlink="http://www.w3.org/1999/xlink" width="129.86227" height="113.65332" viewBox="0,0,129.86227,113.65332"><g transform="translate(-85.03533,-125.66083)"><g data-paper-data="{&quot;isPaintingLayer&quot;:true}" fill-rule="nonzero" stroke="#000000" stroke-width="2" stroke-linecap="butt" stroke-linejoin="miter" stroke-miterlimit="10" stroke-dasharray="" stroke-dashoffset="0" style="mix-blend-mode: normal"><path d="M119.46341,197.80109c6.77068,8.49307 5.78284,20.54119 -2.20641,26.91021c-7.98925,6.36904 -19.95453,4.64715 -26.72521,-3.84592c-6.77068,-8.49307 -5.78284,-20.54119 2.20641,-26.91021c7.98925,-6.36904 19.95453,-4.64715 26.72521,3.84592z" fill="#b5e6ff"/><path d="M124.74563,153.09229c5.50835,6.90962 4.72248,16.69728 -1.75529,21.86136c-6.47777,5.16407 -16.19444,3.74904 -21.70278,-3.16058c-5.50835,-6.90962 -4.72248,-16.69728 1.75529,-21.86136c6.47777,-5.16407 16.19444,-3.74904 21.70278,3.16058z" fill="#6ca9c7"/><path d="M152.9,132.26145c4.79521,6.01507 4.30645,14.37984 -1.0917,18.68323c-5.39814,4.3034 -13.66148,2.91581 -18.4567,-3.09926c-4.79521,-6.01507 -4.30645,-14.37984 1.0917,-18.68323c5.39814,-4.3034 13.66148,-2.91581 18.4567,3.09926z" fill="#2d6b89"/><path d="M190.78541,135.40136c4.13126,5.18222 3.62938,12.45319 -1.12098,16.24018c-4.75037,3.78699 -11.95034,2.65594 -16.0816,-2.52627c-4.13126,-5.18222 -3.62938,-12.45319 1.12098,-16.24018c4.75037,-3.78699 11.95034,-2.65594 16.0816,2.52627z" fill="#006192"/><path d="M212.12543,168.05217c2.92631,3.67073 2.14779,9.15824 -1.73887,12.25669c-3.88666,3.09844 -9.40966,2.63451 -12.33598,-1.03622c-2.92631,-3.67073 -2.14779,-9.15824 1.73887,-12.25669c3.88666,-3.09844 9.40966,-2.63451 12.33598,1.03622z" fill="#004b70"/><path d="M210.8659,204.43856c2.58204,3.23889 2.04956,7.95767 -1.18932,10.53972c-3.23889,2.58204 -7.95767,2.04956 -10.53972,-1.18932c-2.58204,-3.23889 -2.04956,-7.95767 1.18932,-10.53972c3.23889,-2.58204 7.95767,-2.04956 10.53972,1.18932z" fill="#002030"/><path d="M188.17517,231.05346c1.77873,2.23123 1.41192,5.48195 -0.81931,7.26069c-2.23123,1.77873 -5.48195,1.41192 -7.26069,-0.81931c-1.77873,-2.23123 -1.41192,-5.48195 0.81931,-7.26069c2.23123,-1.77873 5.48195,-1.41192 7.26069,0.81931z" fill="#000000"/></g></g></svg>