<svg version="1.1" xmlns="http://www.w3.org/2000/svg" xmlns:xlink="http://www.w3.org/1999/xlink" width="97.3631" height="112.02801" viewBox="0,0,97.3631,112.02801"><g transform="translate(-191.31845,-123.98599)"><g data-paper-data="{&quot;isPaintingLayer&quot;:true}" fill-rule="nonzero" stroke="none" stroke-width="0" stroke-linecap="butt" stroke-linejoin="miter" stroke-miterlimit="10" stroke-dasharray="" stroke-dashoffset="0" style="mix-blend-mode: normal"><g><g><path d="M215.71575,138.651c18.9545,0 29.614,0 48.5685,0c9.52133,0 16.9426,7.00291 16.9426,7.00291c0,0 7.4547,7.873 7.4547,17.3943c0,18.8664 0,29.4763 0,48.3427c0,9.6095 -7.4547,16.7166 -7.4547,16.7166c0,0 -7.55894,7.9065 -17.1685,7.9065c-18.9545,0 -29.614,0 -48.5685,0c-9.43317,0 -16.9426,-7.9065 -16.9426,-7.9065c0,0 -7.2288,-6.96939 -7.2288,-16.4907c0,-9.98598 0,-39.4623 0,-48.3427c0,-9.6095 7.68061,-16.7166 7.68061,-16.7166c0,0 7.19528,-7.90651 16.7166,-7.90651z" data-paper-data="{&quot;index&quot;:null}" fill="#cc3d5e"/><path d="M215.71575,123.986c18.9545,0 29.614,0 48.5685,0c9.52133,0 16.9426,7.00291 16.9426,7.00291c0,0 7.4547,7.873 7.4547,17.3943c0,18.8664 0,29.4763 0,48.3427c0,9.6095 -7.4547,16.7166 -7.4547,16.7166c0,0 -7.55894,7.9065 -17.1685,7.9065c-18.9545,0 -29.614,0 -48.5685,0c-9.43317,0 -16.9426,-7.9065 -16.9426,-7.9065c0,0 -7.2288,-6.96939 -7.2288,-16.4907c0,-9.98598 0,-39.4623 0,-48.3427c0,-9.6095 7.68061,-16.7166 7.68061,-16.7166c0,0 7.19528,-7.90651 16.7166,-7.90651z" data-paper-data="{&quot;index&quot;:null}" fill="#ef476f"/></g><g fill="#ffffff"><path d="M215.08575,140.415c14.9811,11.1699 34.2446,25.5328 38.3872,28.6215c1.38085,1.02956 1.37088,4.25412 -0.01635,5.28844c-15.0359,11.2107 -34.481,25.709 -38.5277,28.7262c-1.34892,1.00576 -3.45292,-0.03228 -3.45067,-1.70242c0.00676,-5.01044 0.04886,-36.2457 0.08013,-59.4448c0.00217,-1.60587 2.15294,-2.51377 3.52738,-1.48898z" data-paper-data="{&quot;origRot&quot;:0}"/><path d="M241.36075,141.055c14.9811,11.1699 34.2446,25.5328 38.3872,28.6215c1.38085,1.02956 1.37088,4.25412 -0.01635,5.28844c-15.0359,11.2107 -34.481,25.709 -38.5277,28.7262c-1.34892,1.00576 -3.45292,-0.03228 -3.45068,-1.70242c0.00675,-5.01044 0.04887,-36.2457 0.08013,-59.4448c0.00216,-1.60587 2.15294,-2.51377 3.52738,-1.48898z" data-paper-data="{&quot;origRot&quot;:0}"/></g></g></g></g></svg>