<svg version="1.1" xmlns="http://www.w3.org/2000/svg" xmlns:xlink="http://www.w3.org/1999/xlink" width="123.26638" height="134.85335" viewBox="0,0,123.26638,134.85335"><g transform="translate(-94.26803,-123.56722)"><g data-paper-data="{&quot;isPaintingLayer&quot;:true}" fill-rule="nonzero" stroke="#000000" stroke-width="2" stroke-linecap="butt" stroke-linejoin="miter" stroke-miterlimit="10" stroke-dasharray="" stroke-dashoffset="0" style="mix-blend-mode: normal"><path d="M149.44756,220.73111c10.64978,-2.1346 20.91092,4.25616 22.91889,14.27417c2.00799,10.01802 -4.9976,19.86966 -15.64736,22.00427c-10.64978,2.1346 -20.91092,-4.25616 -22.91889,-14.27417c-2.00799,-10.01802 4.9976,-19.86966 15.64736,-22.00427z" fill="#b5e6ff"/><path d="M112.10954,195.57855c8.66423,-1.73663 17.0078,3.44032 18.6359,11.56304c1.62808,8.12272 -4.07583,16.1153 -12.74006,17.85193c-8.66423,1.73663 -17.0078,-3.44032 -18.6359,-11.56304c-1.62808,-8.12272 4.07583,-16.1153 12.74006,-17.85193z" fill="#6ca9c7"/><path d="M106.46838,161.01311c7.54252,-1.51179 14.7568,2.74994 16.11352,9.51888c1.35674,6.76893 -3.65783,13.48177 -11.20035,14.99358c-7.54252,1.51179 -14.7568,-2.74994 -16.11352,-9.51888c-1.35674,-6.76893 3.65783,-13.48177 11.20035,-14.99358z" fill="#2d6b89"/><path d="M126.59411,128.76224c6.49819,-1.30246 12.73386,2.47049 13.92779,8.42715c1.19393,5.95665 -3.10601,11.84134 -9.60417,13.14381c-6.49819,1.30246 -12.73386,-2.47049 -13.92779,-8.42715c-1.19393,-5.95665 3.10601,-11.84134 9.60417,-13.14381z" fill="#006192"/><path d="M165.39072,124.72557c4.60286,-0.92258 9.12613,2.28038 10.10299,7.154c0.97684,4.87362 -1.96262,9.57238 -6.56548,10.49498c-4.60286,0.92258 -9.12613,-2.28038 -10.10299,-7.154c-0.97684,-4.87362 1.96262,-9.57238 6.56548,-10.49498z" fill="#004b70"/><path d="M197.169,142.49343c4.06137,-0.81404 8.01365,1.81842 8.8277,5.87978c0.81404,4.06137 -1.81842,8.01365 -5.87978,8.8277c-4.06137,0.81404 -8.01365,-1.81842 -8.8277,-5.87978c-0.81404,-4.06137 1.81842,-8.01365 5.87978,-8.8277z" fill="#002030"/><path d="M210.4531,174.84702c2.79782,-0.56078 5.52051,1.25268 6.08131,4.05051c0.56078,2.79782 -1.25268,5.52051 -4.05051,6.08131c-2.79782,0.56078 -5.52051,-1.25268 -6.08131,-4.05051c-0.56078,-2.79782 1.25268,-5.52051 4.05051,-6.08131z" fill="#000000"/></g></g></svg>