<svg version="1.1" xmlns="http://www.w3.org/2000/svg" xmlns:xlink="http://www.w3.org/1999/xlink" width="126.86719" height="145.26636"><g transform="translate(-176.82002,-103.54688)"><g data-paper-data="{&quot;isPaintingLayer&quot;:true}" fill="none" fill-rule="nonzero" stroke="none" stroke-width="none" stroke-linecap="butt" stroke-linejoin="miter" stroke-miterlimit="10" stroke-dasharray="" stroke-dashoffset="0" font-family="none" font-weight="none" font-size="none" text-anchor="none" style="mix-blend-mode: normal"><path d="M253.2652,226.01366c0,-12.59185 10.20772,-22.79956 22.79957,-22.79956c12.59185,0 22.79956,10.20772 22.79956,22.79957c0,12.59185 -10.20771,22.79957 -22.79956,22.79957c-12.59185,0 -22.79956,-10.20772 -22.79956,-22.79956z" data-paper-data="{&quot;origPos&quot;:null}" fill="#17ff00" stroke-width="0"/><path d="M263.81507,221.26666c-1.33027,-1.53441 -1.49143,-5.59397 -0.26431,-6.65787c1.12347,-0.97401 1.7553,-1.52178 2.87873,-2.49579c1.27515,-1.10552 9.46485,8.06801 8.27615,9.09863c-1.20989,1.04894 -1.89029,1.63882 -3.10019,2.68776c-1.22716,1.06391 -5.97724,-0.54139 -7.79037,-2.63273z" data-paper-data="{&quot;origRot&quot;:0,&quot;origPos&quot;:null}" fill="#ffffff" stroke-width="0"/><path d="M279.17374,238.98203c-1.33027,-1.53441 -1.49143,-5.59397 -0.26431,-6.65787c1.12347,-0.97401 1.7553,-1.52178 2.87873,-2.49579c1.27515,-1.10552 9.46483,8.06801 8.27613,9.09863c-1.20989,1.04894 -1.89029,1.63882 -3.10019,2.68776c-1.22716,1.06391 -5.97722,-0.54137 -7.79037,-2.63273z" data-paper-data="{&quot;origRot&quot;:0,&quot;origPos&quot;:null}" fill="#ffffff" stroke-width="0"/><path d="M279.92744,239.48498c0,0 -6.20182,-4.90091 -10.43451,-10.00647c-2.65343,-3.20062 -5.47603,-8.36324 -5.47603,-8.36324l4.22687,-6.06188c0,0 1.35685,8.51703 5.10189,12.83673c3.7822,4.36256 14.2741,8.17015 14.2741,8.17015z" data-paper-data="{&quot;origRot&quot;:0,&quot;origPos&quot;:null}" fill="#ffffff" stroke-width="0"/><text transform="translate(177.07002,125.00001) scale(0.5,0.5)" font-size="40" xml:space="preserve" data-paper-data="{&quot;origPos&quot;:null}" fill="#ffffff" fill-rule="nonzero" stroke="none" stroke-width="1" stroke-linecap="butt" stroke-linejoin="miter" stroke-miterlimit="10" stroke-dasharray="" stroke-dashoffset="0" font-family="Sans Serif" font-weight="normal" text-anchor="start" style="mix-blend-mode: normal"><tspan x="0" dy="0">call someone</tspan></text></g></g></svg>