<svg version="1.1" xmlns="http://www.w3.org/2000/svg" xmlns:xlink="http://www.w3.org/1999/xlink" width="63.95316" height="27.77273" viewBox="0,0,63.95316,27.77273"><defs><radialGradient cx="215.9872" cy="202.5324" r="7.7174" fx="215.9872" fy="202.5324" gradientUnits="userSpaceOnUse" id="color-1"><stop offset="0" stop-color="#000000"/><stop offset="1" stop-color="#000000" stop-opacity="0"/></radialGradient></defs><g transform="translate(-190.09384,-164.92237)"><g stroke="none" stroke-miterlimit="10"><path d="M235.127,171.993c0.229,0.002 0.458,0.013 0.687,0.034v-0.017h9.605c0.163,-0.01 0.326,-0.016 0.489,-0.017c0.117,0.003 0.234,0.009 0.35,0.017h0.48v0.026c4.151,0.425 7.309,3.922 7.309,8.095c-0.005,4.17 -3.161,7.662 -7.309,8.087v0.022h-0.181c-0.216,0.019 -0.432,0.029 -0.649,0.03c-0.195,-0.003 -0.391,-0.013 -0.586,-0.03h-9.508v-0.005c-0.229,0.021 -0.458,0.033 -0.687,0.034c-4.495,0 -8.138,-3.644 -8.138,-8.138c0,-4.495 3.643,-8.138 8.138,-8.139z" fill="#7dff82" stroke-width="1.25667" stroke-linecap="round"/><path d="M236.072,172.721c0.209,0.002 0.417,0.012 0.626,0.031v-0.015h8.746c0.148,-0.01 0.297,-0.015 0.446,-0.016c0.106,0.003 0.212,0.008 0.318,0.016h0.437v0.023c3.78,0.388 6.655,3.572 6.656,7.372c-0.005,3.797 -2.879,6.977 -6.656,7.364v0.02h-0.165c-0.197,0.017 -0.393,0.026 -0.59,0.027c-0.179,-0.003 -0.357,-0.012 -0.534,-0.027h-8.658v-0.005c-0.209,0.019 -0.417,0.029 -0.626,0.031c-4.093,0 -7.411,-3.318 -7.411,-7.411c0,-4.093 3.318,-7.411 7.411,-7.411z" fill="#fefefe" stroke-width="1.14432" stroke-linecap="round"/><g stroke-linecap="round"><path d="M235.181,172.497c2.622,0 4.997,1.064 6.718,2.785c1.72,1.72 2.785,4.096 2.785,6.718c0,2.622 -1.065,4.998 -2.785,6.718c-1.721,1.72 -4.096,2.785 -6.718,2.785c-2.622,0 -4.998,-1.065 -6.718,-2.785c-1.721,-1.72 -2.786,-4.096 -2.786,-6.718c0,-2.622 1.065,-4.998 2.786,-6.718c1.72,-1.721 4.096,-2.785 6.718,-2.785z" fill="url(#color-1)" stroke-width="1.47564"/><path d="M235.48,172.397c2.129,0 4.059,0.865 5.456,2.262c1.397,1.397 2.262,3.327 2.262,5.456c0,2.129 -0.865,4.058 -2.262,5.455c-1.397,1.397 -3.327,2.262 -5.456,2.262c-2.129,0 -4.058,-0.865 -5.455,-2.262c-1.397,-1.397 -2.262,-3.326 -2.262,-5.455c0,-2.129 0.865,-4.059 2.262,-5.456c1.397,-1.397 3.326,-2.262 5.455,-2.262z" fill="#ffffff" stroke-width="1.19832"/></g><text transform="translate(190.79839,186.53601) scale(0.5,0.5)" font-size="40" xml:space="preserve" fill="#7dff82" stroke-width="1" stroke-linecap="butt" font-family="Sans Serif" font-weight="normal" text-anchor="start"><tspan x="0" dy="0">YES</tspan></text></g></g></svg>