<svg version="1.1" xmlns="http://www.w3.org/2000/svg" xmlns:xlink="http://www.w3.org/1999/xlink" width="110.03131" height="964.63969" viewBox="0,0,110.03131,964.63969"><g transform="translate(-184.98435,-5.4357)"><g data-paper-data="{&quot;isPaintingLayer&quot;:true}" fill="none" fill-rule="nonzero" stroke="none" stroke-width="none" stroke-linecap="none" stroke-linejoin="miter" stroke-miterlimit="10" stroke-dasharray="" stroke-dashoffset="0" font-family="none" font-weight="none" font-size="none" text-anchor="none" style="mix-blend-mode: normal"><g><g data-paper-data="{&quot;origPos&quot;:null}"><g data-paper-data="{&quot;origPos&quot;:null}"><path d="M185.9413,817.79256c0,0 -0.01269,-0.67427 0.91973,-1.25006c0.98129,-0.60596 1.85195,-0.59279 1.85195,-0.59279l102.69488,-0.0179c0,0 0.87066,-0.01317 1.85195,0.5928c0.93242,0.57578 0.91973,1.25006 0.91973,1.25006v42.36355c0,0 0.01269,0.67428 -0.91973,1.25006c-0.98129,0.60596 -1.85195,0.5928 -1.85195,0.5928l-102.65289,0.01772c0,0 -0.87065,0.01317 -1.85195,-0.59279c-0.93242,-0.57578 -0.91973,-1.25006 -0.91973,-1.25006z" data-paper-data="{&quot;origPos&quot;:null}" fill="#6c6c6c" stroke="#a7a7a7" stroke-width="0.5" stroke-linecap="round"/><text transform="translate(190.26635,829.1219) scale(0.20262,0.20262)" font-size="40" xml:space="preserve" data-paper-data="{&quot;origPos&quot;:null}" fill="#ffffff" fill-rule="nonzero" stroke="none" stroke-width="1" stroke-linecap="butt" stroke-linejoin="miter" stroke-miterlimit="10" stroke-dasharray="" stroke-dashoffset="0" font-family="Sans Serif" font-weight="normal" text-anchor="start" style="mix-blend-mode: normal"><tspan x="0" dy="0">spencer's tesla semi truck</tspan></text><text transform="translate(190.68654,849.12988) scale(0.5,0.5)" font-size="40" xml:space="preserve" data-paper-data="{&quot;origPos&quot;:null}" fill="#17ff00" fill-rule="nonzero" stroke="none" stroke-width="1" stroke-linecap="butt" stroke-linejoin="miter" stroke-miterlimit="10" stroke-dasharray="" stroke-dashoffset="0" font-family="Sans Serif" font-weight="normal" text-anchor="start" style="mix-blend-mode: normal"><tspan x="0" dy="0">connected</tspan></text><path d="M186.52741,875.23137c0,0 -0.01269,-0.67428 0.91973,-1.25006c0.9813,-0.60596 1.85195,-0.59279 1.85195,-0.59279l102.69488,-0.0179c0,0 0.87065,-0.01317 1.85195,0.5928c0.93242,0.57578 0.91972,1.25006 0.91972,1.25006v42.36355c0,0 0.0127,0.67428 -0.91972,1.25006c-0.9813,0.60596 -1.85195,0.5928 -1.85195,0.5928l-102.65289,0.01772c0,0 -0.87066,0.01317 -1.85195,-0.59279c-0.93242,-0.57578 -0.91973,-1.25006 -0.91973,-1.25006z" data-paper-data="{&quot;origPos&quot;:null}" fill="#6c6c6c" stroke="#a7a7a7" stroke-width="0.5" stroke-linecap="round"/><text transform="translate(192.21434,884.09166) scale(0.26819,0.26819)" font-size="40" xml:space="preserve" data-paper-data="{&quot;origPos&quot;:null}" fill="#ffffff" fill-rule="nonzero" stroke="none" stroke-width="1" stroke-linecap="butt" stroke-linejoin="miter" stroke-miterlimit="10" stroke-dasharray="" stroke-dashoffset="0" font-family="Sans Serif" font-weight="normal" text-anchor="start" style="mix-blend-mode: normal"><tspan x="0" dy="0">spencer's iMac pro</tspan></text><text transform="translate(190.68654,902.46592) scale(0.5,0.5)" font-size="40" xml:space="preserve" data-paper-data="{&quot;origPos&quot;:null}" fill="#17ff00" fill-rule="nonzero" stroke="none" stroke-width="1" stroke-linecap="butt" stroke-linejoin="miter" stroke-miterlimit="10" stroke-dasharray="" stroke-dashoffset="0" font-family="Sans Serif" font-weight="normal" text-anchor="start" style="mix-blend-mode: normal"><tspan x="0" dy="0">connected</tspan></text><path d="M186.52741,925.63686c0,0 -0.01269,-0.67428 0.91973,-1.25006c0.9813,-0.60596 1.85195,-0.59279 1.85195,-0.59279l102.69488,-0.0179c0,0 0.87065,-0.01317 1.85195,0.5928c0.93242,0.57578 0.91972,1.25006 0.91972,1.25006v42.36355c0,0 0.0127,0.67428 -0.91972,1.25006c-0.9813,0.60596 -1.85195,0.5928 -1.85195,0.5928l-102.65289,0.01772c0,0 -0.87066,0.01317 -1.85195,-0.59279c-0.93242,-0.57578 -0.91973,-1.25006 -0.91973,-1.25006z" data-paper-data="{&quot;origPos&quot;:null}" fill="#6c6c6c" stroke="#a7a7a7" stroke-width="0.5" stroke-linecap="round"/><text transform="translate(190.82136,934.80882) scale(0.27519,0.27519)" font-size="40" xml:space="preserve" data-paper-data="{&quot;origPos&quot;:null}" fill="#ffffff" fill-rule="nonzero" stroke="none" stroke-width="1" stroke-linecap="butt" stroke-linejoin="miter" stroke-miterlimit="10" stroke-dasharray="" stroke-dashoffset="0" font-family="Sans Serif" font-weight="normal" text-anchor="start" style="mix-blend-mode: normal"><tspan x="0" dy="0">spencer's iMac G3</tspan></text><text transform="translate(191.84264,957.02934) scale(0.4913,0.4913)" font-size="40" xml:space="preserve" data-paper-data="{&quot;origPos&quot;:null}" fill="#17ff00" fill-rule="nonzero" stroke="none" stroke-width="1" stroke-linecap="butt" stroke-linejoin="miter" stroke-miterlimit="10" stroke-dasharray="" stroke-dashoffset="0" font-family="Sans Serif" font-weight="normal" text-anchor="start" style="mix-blend-mode: normal"><tspan x="0" dy="0">connected</tspan></text><path d="M186.52741,716.23137c0,0 -0.01269,-0.67427 0.91973,-1.25006c0.9813,-0.60596 1.85195,-0.59279 1.85195,-0.59279l102.69488,-0.0179c0,0 0.87065,-0.01317 1.85195,0.5928c0.93242,0.57578 0.91972,1.25006 0.91972,1.25006v42.36355c0,0 0.0127,0.67428 -0.91972,1.25006c-0.9813,0.60596 -1.85195,0.5928 -1.85195,0.5928l-102.65289,0.01772c0,0 -0.87066,0.01317 -1.85195,-0.5928c-0.93242,-0.57578 -0.91973,-1.25006 -0.91973,-1.25006z" data-paper-data="{&quot;origPos&quot;:null}" fill="#6c6c6c" stroke="#a7a7a7" stroke-width="0.5" stroke-linecap="round"/><text transform="translate(192.21434,726.175) scale(0.1743,0.1743)" font-size="40" xml:space="preserve" data-paper-data="{&quot;origPos&quot;:null}" fill="#ffffff" fill-rule="nonzero" stroke="none" stroke-width="1" stroke-linecap="butt" stroke-linejoin="miter" stroke-miterlimit="10" stroke-dasharray="" stroke-dashoffset="0" font-family="Sans Serif" font-weight="normal" text-anchor="start" style="mix-blend-mode: normal"><tspan x="0" dy="0">spencer's tesla roadster 2012</tspan></text><text transform="translate(190.68654,743.46592) scale(0.5,0.5)" font-size="40" xml:space="preserve" data-paper-data="{&quot;origPos&quot;:null}" fill="#17ff00" fill-rule="nonzero" stroke="none" stroke-width="1" stroke-linecap="butt" stroke-linejoin="miter" stroke-miterlimit="10" stroke-dasharray="" stroke-dashoffset="0" font-family="Sans Serif" font-weight="normal" text-anchor="start" style="mix-blend-mode: normal"><tspan x="0" dy="0">connected</tspan></text><path d="M186.52741,766.63686c0,0 -0.01269,-0.67427 0.91973,-1.25006c0.9813,-0.60596 1.85195,-0.59279 1.85195,-0.59279l102.69488,-0.0179c0,0 0.87065,-0.01317 1.85195,0.5928c0.93242,0.57578 0.91972,1.25006 0.91972,1.25006v42.36355c0,0 0.0127,0.67428 -0.91972,1.25006c-0.9813,0.60596 -1.85195,0.5928 -1.85195,0.5928l-102.65289,0.01772c0,0 -0.87066,0.01317 -1.85195,-0.59279c-0.93242,-0.57578 -0.91973,-1.25006 -0.91973,-1.25006z" data-paper-data="{&quot;origPos&quot;:null}" fill="#6c6c6c" stroke="#a7a7a7" stroke-width="0.5" stroke-linecap="round"/><text transform="translate(190.82136,776.92351) scale(0.17858,0.17858)" font-size="40" xml:space="preserve" data-paper-data="{&quot;origPos&quot;:null}" fill="#ffffff" fill-rule="nonzero" stroke="none" stroke-width="1" stroke-linecap="butt" stroke-linejoin="miter" stroke-miterlimit="10" stroke-dasharray="" stroke-dashoffset="0" font-family="Sans Serif" font-weight="normal" text-anchor="start" style="mix-blend-mode: normal"><tspan x="0" dy="0">spencer's tesla roadster 2020</tspan></text><text transform="translate(191.84264,798.02934) scale(0.4913,0.4913)" font-size="40" xml:space="preserve" data-paper-data="{&quot;origPos&quot;:null}" fill="#17ff00" fill-rule="nonzero" stroke="none" stroke-width="1" stroke-linecap="butt" stroke-linejoin="miter" stroke-miterlimit="10" stroke-dasharray="" stroke-dashoffset="0" font-family="Sans Serif" font-weight="normal" text-anchor="start" style="mix-blend-mode: normal"><tspan x="0" dy="0">connected</tspan></text></g><g data-paper-data="{&quot;origPos&quot;:null}"><path d="M185.23436,553.01766c0,0 -0.01269,-0.67428 0.91973,-1.25006c0.9813,-0.60596 1.85195,-0.59279 1.85195,-0.59279l102.69488,-0.0179c0,0 0.87065,-0.01317 1.85195,0.5928c0.93242,0.57578 0.91972,1.25006 0.91972,1.25006v42.36355c0,0 0.0127,0.67428 -0.91972,1.25006c-0.9813,0.60596 -1.85195,0.5928 -1.85195,0.5928l-102.65289,0.01772c0,0 -0.87065,0.01316 -1.85195,-0.5928c-0.93242,-0.57578 -0.91973,-1.25006 -0.91973,-1.25006z" data-paper-data="{&quot;origPos&quot;:null}" fill="#6c6c6c" stroke="#a7a7a7" stroke-width="0.5" stroke-linecap="round"/><text transform="translate(189.55941,564.13686) scale(0.22083,0.22083)" font-size="40" xml:space="preserve" data-paper-data="{&quot;origPos&quot;:null}" fill="#ffffff" fill-rule="nonzero" stroke="none" stroke-width="1" stroke-linecap="butt" stroke-linejoin="miter" stroke-miterlimit="10" stroke-dasharray="" stroke-dashoffset="0" font-family="Sans Serif" font-weight="normal" text-anchor="start" style="mix-blend-mode: normal"><tspan x="0" dy="0">spencer's tesla model S</tspan></text><text transform="translate(189.9796,584.35498) scale(0.5,0.5)" font-size="40" xml:space="preserve" data-paper-data="{&quot;origPos&quot;:null}" fill="#17ff00" fill-rule="nonzero" stroke="none" stroke-width="1" stroke-linecap="butt" stroke-linejoin="miter" stroke-miterlimit="10" stroke-dasharray="" stroke-dashoffset="0" font-family="Sans Serif" font-weight="normal" text-anchor="start" style="mix-blend-mode: normal"><tspan x="0" dy="0">connected</tspan></text><path d="M185.82047,610.45648c0,0 -0.01269,-0.67428 0.91973,-1.25006c0.98129,-0.60596 1.85195,-0.59279 1.85195,-0.59279l102.69488,-0.0179c0,0 0.87065,-0.01317 1.85195,0.5928c0.93242,0.57578 0.91972,1.25006 0.91972,1.25006v42.36355c0,0 0.0127,0.67428 -0.91972,1.25006c-0.98129,0.60596 -1.85195,0.5928 -1.85195,0.5928l-102.65289,0.01772c0,0 -0.87065,0.01316 -1.85195,-0.5928c-0.93242,-0.57578 -0.91973,-1.25006 -0.91973,-1.25006z" data-paper-data="{&quot;origPos&quot;:null}" fill="#6c6c6c" stroke="#a7a7a7" stroke-width="0.5" stroke-linecap="round"/><text transform="translate(191.5074,619.9001) scale(0.21764,0.21764)" font-size="40" xml:space="preserve" data-paper-data="{&quot;origPos&quot;:null}" fill="#ffffff" fill-rule="nonzero" stroke="none" stroke-width="1" stroke-linecap="butt" stroke-linejoin="miter" stroke-miterlimit="10" stroke-dasharray="" stroke-dashoffset="0" font-family="Sans Serif" font-weight="normal" text-anchor="start" style="mix-blend-mode: normal"><tspan x="0" dy="0">spencer's tesla model 3</tspan></text><text transform="translate(189.9796,637.69102) scale(0.5,0.5)" font-size="40" xml:space="preserve" data-paper-data="{&quot;origPos&quot;:null}" fill="#17ff00" fill-rule="nonzero" stroke="none" stroke-width="1" stroke-linecap="butt" stroke-linejoin="miter" stroke-miterlimit="10" stroke-dasharray="" stroke-dashoffset="0" font-family="Sans Serif" font-weight="normal" text-anchor="start" style="mix-blend-mode: normal"><tspan x="0" dy="0">connected</tspan></text><path d="M185.82047,660.86196c0,0 -0.01269,-0.67428 0.91973,-1.25006c0.98129,-0.60596 1.85195,-0.59279 1.85195,-0.59279l102.69488,-0.0179c0,0 0.87065,-0.01317 1.85195,0.5928c0.93242,0.57578 0.91972,1.25006 0.91972,1.25006v42.36355c0,0 0.0127,0.67428 -0.91972,1.25006c-0.98129,0.60596 -1.85195,0.5928 -1.85195,0.5928l-102.65289,0.01772c0,0 -0.87065,0.01316 -1.85195,-0.5928c-0.93242,-0.57578 -0.91973,-1.25006 -0.91973,-1.25006z" data-paper-data="{&quot;origPos&quot;:null}" fill="#6c6c6c" stroke="#a7a7a7" stroke-width="0.5" stroke-linecap="round"/><text transform="translate(190.11442,670.70059) scale(0.21741,0.21741)" font-size="40" xml:space="preserve" data-paper-data="{&quot;origPos&quot;:null}" fill="#ffffff" fill-rule="nonzero" stroke="none" stroke-width="1" stroke-linecap="butt" stroke-linejoin="miter" stroke-miterlimit="10" stroke-dasharray="" stroke-dashoffset="0" font-family="Sans Serif" font-weight="normal" text-anchor="start" style="mix-blend-mode: normal"><tspan x="0" dy="0">spencer's tesla model Y</tspan></text><text transform="translate(191.1357,692.25444) scale(0.4913,0.4913)" font-size="40" xml:space="preserve" data-paper-data="{&quot;origPos&quot;:null}" fill="#17ff00" fill-rule="nonzero" stroke="none" stroke-width="1" stroke-linecap="butt" stroke-linejoin="miter" stroke-miterlimit="10" stroke-dasharray="" stroke-dashoffset="0" font-family="Sans Serif" font-weight="normal" text-anchor="start" style="mix-blend-mode: normal"><tspan x="0" dy="0">connected</tspan></text><path d="M185.23436,394.01766c0,0 -0.01269,-0.67427 0.91973,-1.25006c0.9813,-0.60596 1.85195,-0.59279 1.85195,-0.59279l102.69488,-0.0179c0,0 0.87065,-0.01317 1.85195,0.59279c0.93242,0.57578 0.91972,1.25006 0.91972,1.25006v42.36355c0,0 0.0127,0.67427 -0.91972,1.25006c-0.9813,0.60596 -1.85195,0.5928 -1.85195,0.5928l-102.65289,0.01772c0,0 -0.87065,0.01317 -1.85195,-0.59279c-0.93242,-0.57578 -0.91973,-1.25006 -0.91973,-1.25006z" data-paper-data="{&quot;origPos&quot;:null}" fill="#6c6c6c" stroke="#a7a7a7" stroke-width="0.5" stroke-linecap="round"/><text transform="translate(189.55941,405.13686) scale(0.22083,0.22083)" font-size="40" xml:space="preserve" data-paper-data="{&quot;origPos&quot;:null}" fill="#ffffff" fill-rule="nonzero" stroke="none" stroke-width="1" stroke-linecap="butt" stroke-linejoin="miter" stroke-miterlimit="10" stroke-dasharray="" stroke-dashoffset="0" font-family="Sans Serif" font-weight="normal" text-anchor="start" style="mix-blend-mode: normal"><tspan x="0" dy="0">spencer's tesla model S</tspan></text><text transform="translate(189.9796,425.35498) scale(0.5,0.5)" font-size="40" xml:space="preserve" data-paper-data="{&quot;origPos&quot;:null}" fill="#17ff00" fill-rule="nonzero" stroke="none" stroke-width="1" stroke-linecap="butt" stroke-linejoin="miter" stroke-miterlimit="10" stroke-dasharray="" stroke-dashoffset="0" font-family="Sans Serif" font-weight="normal" text-anchor="start" style="mix-blend-mode: normal"><tspan x="0" dy="0">connected</tspan></text><path d="M185.82047,451.45648c0,0 -0.01269,-0.67428 0.91973,-1.25006c0.98129,-0.60596 1.85195,-0.59279 1.85195,-0.59279l102.69488,-0.0179c0,0 0.87065,-0.01316 1.85195,0.5928c0.93242,0.57578 0.91972,1.25006 0.91972,1.25006v42.36355c0,0 0.0127,0.67427 -0.91972,1.25006c-0.98129,0.60596 -1.85195,0.5928 -1.85195,0.5928l-102.65289,0.01772c0,0 -0.87065,0.01316 -1.85195,-0.5928c-0.93242,-0.57578 -0.91973,-1.25006 -0.91973,-1.25006z" data-paper-data="{&quot;origPos&quot;:null}" fill="#6c6c6c" stroke="#a7a7a7" stroke-width="0.5" stroke-linecap="round"/><text transform="translate(191.5074,460.9001) scale(0.21764,0.21764)" font-size="40" xml:space="preserve" data-paper-data="{&quot;origPos&quot;:null}" fill="#ffffff" fill-rule="nonzero" stroke="none" stroke-width="1" stroke-linecap="butt" stroke-linejoin="miter" stroke-miterlimit="10" stroke-dasharray="" stroke-dashoffset="0" font-family="Sans Serif" font-weight="normal" text-anchor="start" style="mix-blend-mode: normal"><tspan x="0" dy="0">spencer's tesla model 3</tspan></text><text transform="translate(189.9796,478.69102) scale(0.5,0.5)" font-size="40" xml:space="preserve" data-paper-data="{&quot;origPos&quot;:null}" fill="#17ff00" fill-rule="nonzero" stroke="none" stroke-width="1" stroke-linecap="butt" stroke-linejoin="miter" stroke-miterlimit="10" stroke-dasharray="" stroke-dashoffset="0" font-family="Sans Serif" font-weight="normal" text-anchor="start" style="mix-blend-mode: normal"><tspan x="0" dy="0">connected</tspan></text><path d="M185.82047,501.86196c0,0 -0.01269,-0.67428 0.91973,-1.25006c0.98129,-0.60596 1.85195,-0.59279 1.85195,-0.59279l102.69488,-0.0179c0,0 0.87065,-0.01317 1.85195,0.5928c0.93242,0.57578 0.91972,1.25006 0.91972,1.25006v42.36355c0,0 0.0127,0.67428 -0.91972,1.25006c-0.98129,0.60596 -1.85195,0.5928 -1.85195,0.5928l-102.65289,0.01772c0,0 -0.87065,0.01316 -1.85195,-0.5928c-0.93242,-0.57578 -0.91973,-1.25006 -0.91973,-1.25006z" data-paper-data="{&quot;origPos&quot;:null}" fill="#6c6c6c" stroke="#a7a7a7" stroke-width="0.5" stroke-linecap="round"/><text transform="translate(190.11442,511.70059) scale(0.21741,0.21741)" font-size="40" xml:space="preserve" data-paper-data="{&quot;origPos&quot;:null}" fill="#ffffff" fill-rule="nonzero" stroke="none" stroke-width="1" stroke-linecap="butt" stroke-linejoin="miter" stroke-miterlimit="10" stroke-dasharray="" stroke-dashoffset="0" font-family="Sans Serif" font-weight="normal" text-anchor="start" style="mix-blend-mode: normal"><tspan x="0" dy="0">spencer's tesla model Y</tspan></text><text transform="translate(191.1357,533.25444) scale(0.4913,0.4913)" font-size="40" xml:space="preserve" data-paper-data="{&quot;origPos&quot;:null}" fill="#17ff00" fill-rule="nonzero" stroke="none" stroke-width="1" stroke-linecap="butt" stroke-linejoin="miter" stroke-miterlimit="10" stroke-dasharray="" stroke-dashoffset="0" font-family="Sans Serif" font-weight="normal" text-anchor="start" style="mix-blend-mode: normal"><tspan x="0" dy="0">connected</tspan></text></g></g><g data-paper-data="{&quot;origPos&quot;:null}"><path d="M185.69797,7.52858c0,0 -0.01256,-0.67427 0.90976,-1.25006c0.97067,-0.60596 1.8319,-0.5928 1.8319,-0.5928l101.5827,-0.01789c0,0 0.86122,-0.01317 1.83189,0.59279c0.92232,0.57578 0.90977,1.25006 0.90977,1.25006v42.36355c0,0 0.01255,0.67427 -0.90977,1.25006c-0.97067,0.60596 -1.83189,0.59279 -1.83189,0.59279l-101.54117,0.01772c0,0 -0.86122,0.01316 -1.83189,-0.59279c-0.92232,-0.57578 -0.90977,-1.25006 -0.90977,-1.25006z" data-paper-data="{&quot;origPos&quot;:null}" fill="#6c6c6c" stroke="#a7a7a7" stroke-width="0.5" stroke-linecap="round"/><text transform="translate(193.21307,35.3885) scale(0.5,0.5)" font-size="40" xml:space="preserve" data-paper-data="{&quot;origPos&quot;:null}" fill="#ffffff" fill-rule="nonzero" stroke="none" stroke-width="1" stroke-linecap="butt" stroke-linejoin="miter" stroke-miterlimit="10" stroke-dasharray="" stroke-dashoffset="0" font-family="Sans Serif" font-weight="normal" text-anchor="start" style="mix-blend-mode: normal"><tspan x="0" dy="0">bluetooth</tspan></text><path d="M185.58783,70.28164c0,0 -0.01269,-0.67427 0.91973,-1.25006c0.98129,-0.60596 1.85195,-0.59279 1.85195,-0.59279l102.69488,-0.0179c0,0 0.87065,-0.01316 1.85195,0.5928c0.93242,0.57578 0.91973,1.25006 0.91973,1.25006v42.36355c0,0 0.01269,0.67427 -0.91973,1.25006c-0.98129,0.60596 -1.85195,0.59279 -1.85195,0.59279l-102.6529,0.01772c0,0 -0.87065,0.01317 -1.85195,-0.59279c-0.93242,-0.57578 -0.91974,-1.25006 -0.91974,-1.25006z" data-paper-data="{&quot;origPos&quot;:null}" fill="#6c6c6c" stroke="#a7a7a7" stroke-width="0.5" stroke-linecap="round"/><text transform="translate(189.91288,81.40084) scale(0.22083,0.22083)" font-size="40" xml:space="preserve" data-paper-data="{&quot;origPos&quot;:null}" fill="#ffffff" fill-rule="nonzero" stroke="none" stroke-width="1" stroke-linecap="butt" stroke-linejoin="miter" stroke-miterlimit="10" stroke-dasharray="" stroke-dashoffset="0" font-family="Sans Serif" font-weight="normal" text-anchor="start" style="mix-blend-mode: normal"><tspan x="0" dy="0">spencer's iPhone 11 pro</tspan></text><text transform="translate(190.33307,101.61896) scale(0.5,0.5)" font-size="40" xml:space="preserve" data-paper-data="{&quot;origPos&quot;:null}" fill="#17ff00" fill-rule="nonzero" stroke="none" stroke-width="1" stroke-linecap="butt" stroke-linejoin="miter" stroke-miterlimit="10" stroke-dasharray="" stroke-dashoffset="0" font-family="Sans Serif" font-weight="normal" text-anchor="start" style="mix-blend-mode: normal"><tspan x="0" dy="0">connected</tspan></text><path d="M186.17394,127.72045c0,0 -0.01269,-0.67427 0.91973,-1.25006c0.98129,-0.60596 1.85195,-0.59279 1.85195,-0.59279l102.69488,-0.0179c0,0 0.87066,-0.01316 1.85195,0.59279c0.93242,0.57578 0.91972,1.25006 0.91972,1.25006v42.36355c0,0 0.0127,0.67428 -0.91972,1.25006c-0.98129,0.60596 -1.85195,0.59279 -1.85195,0.59279l-102.65289,0.01772c0,0 -0.87065,0.01317 -1.85195,-0.59279c-0.93242,-0.57578 -0.91973,-1.25006 -0.91973,-1.25006z" data-paper-data="{&quot;origPos&quot;:null}" fill="#6c6c6c" stroke="#a7a7a7" stroke-width="0.5" stroke-linecap="round"/><text transform="translate(191.86087,136.95774) scale(0.23552,0.23552)" font-size="40" xml:space="preserve" data-paper-data="{&quot;origPos&quot;:null}" fill="#ffffff" fill-rule="nonzero" stroke="none" stroke-width="1" stroke-linecap="butt" stroke-linejoin="miter" stroke-miterlimit="10" stroke-dasharray="" stroke-dashoffset="0" font-family="Sans Serif" font-weight="normal" text-anchor="start" style="mix-blend-mode: normal"><tspan x="0" dy="0">spencer's airpods pro</tspan></text><text transform="translate(190.33307,154.955) scale(0.5,0.5)" font-size="40" xml:space="preserve" data-paper-data="{&quot;origPos&quot;:null}" fill="#17ff00" fill-rule="nonzero" stroke="none" stroke-width="1" stroke-linecap="butt" stroke-linejoin="miter" stroke-miterlimit="10" stroke-dasharray="" stroke-dashoffset="0" font-family="Sans Serif" font-weight="normal" text-anchor="start" style="mix-blend-mode: normal"><tspan x="0" dy="0">connected</tspan></text><path d="M186.17394,178.12594c0,0 -0.01269,-0.67428 0.91973,-1.25006c0.98129,-0.60596 1.85195,-0.59279 1.85195,-0.59279l102.69488,-0.0179c0,0 0.87066,-0.01316 1.85195,0.5928c0.93242,0.57578 0.91972,1.25006 0.91972,1.25006v42.36355c0,0 0.0127,0.67428 -0.91972,1.25006c-0.98129,0.60596 -1.85195,0.59279 -1.85195,0.59279l-102.65289,0.01772c0,0 -0.87065,0.01316 -1.85195,-0.5928c-0.93242,-0.57578 -0.91973,-1.25006 -0.91973,-1.25006z" data-paper-data="{&quot;origPos&quot;:null}" fill="#6c6c6c" stroke="#a7a7a7" stroke-width="0.5" stroke-linecap="round"/><text transform="translate(190.46789,187.4129) scale(0.26523,0.26523)" font-size="40" xml:space="preserve" data-paper-data="{&quot;origPos&quot;:null}" fill="#ffffff" fill-rule="nonzero" stroke="none" stroke-width="1" stroke-linecap="butt" stroke-linejoin="miter" stroke-miterlimit="10" stroke-dasharray="" stroke-dashoffset="0" font-family="Sans Serif" font-weight="normal" text-anchor="start" style="mix-blend-mode: normal"><tspan x="0" dy="0">spencer's homepod</tspan></text><text transform="translate(191.48917,205.76842) scale(0.38296,0.38295)" font-size="40" xml:space="preserve" data-paper-data="{&quot;origPos&quot;:null}" fill="#ff0000" fill-rule="nonzero" stroke="none" stroke-width="1" stroke-linecap="butt" stroke-linejoin="miter" stroke-miterlimit="10" stroke-dasharray="" stroke-dashoffset="0" font-family="Sans Serif" font-weight="normal" text-anchor="start" style="mix-blend-mode: normal"><tspan x="0" dy="0">disconnected</tspan></text><path d="M185.58783,231.90511c0,0 -0.01269,-0.67428 0.91973,-1.25006c0.98129,-0.60596 1.85195,-0.59279 1.85195,-0.59279l102.69488,-0.0179c0,0 0.87065,-0.01316 1.85195,0.5928c0.93242,0.57578 0.91972,1.25006 0.91972,1.25006v42.36355c0,0 0.0127,0.67428 -0.91972,1.25006c-0.98129,0.60596 -1.85195,0.59279 -1.85195,0.59279l-102.6529,0.01772c0,0 -0.87065,0.01317 -1.85195,-0.59279c-0.93242,-0.57578 -0.91973,-1.25006 -0.91973,-1.25006z" data-paper-data="{&quot;origPos&quot;:null}" fill="#6c6c6c" stroke="#a7a7a7" stroke-width="0.5" stroke-linecap="round"/><text transform="translate(189.91288,243.02431) scale(0.22083,0.22083)" font-size="40" xml:space="preserve" data-paper-data="{&quot;origPos&quot;:null}" fill="#ffffff" fill-rule="nonzero" stroke="none" stroke-width="1" stroke-linecap="butt" stroke-linejoin="miter" stroke-miterlimit="10" stroke-dasharray="" stroke-dashoffset="0" font-family="Sans Serif" font-weight="normal" text-anchor="start" style="mix-blend-mode: normal"><tspan x="0" dy="0">spencer's macbook pro</tspan></text><text transform="translate(190.33307,263.24243) scale(0.5,0.5)" font-size="40" xml:space="preserve" data-paper-data="{&quot;origPos&quot;:null}" fill="#17ff00" fill-rule="nonzero" stroke="none" stroke-width="1" stroke-linecap="butt" stroke-linejoin="miter" stroke-miterlimit="10" stroke-dasharray="" stroke-dashoffset="0" font-family="Sans Serif" font-weight="normal" text-anchor="start" style="mix-blend-mode: normal"><tspan x="0" dy="0">connected</tspan></text><path d="M186.17394,289.34393c0,0 -0.01269,-0.67428 0.91973,-1.25006c0.98129,-0.60596 1.85195,-0.59279 1.85195,-0.59279l102.69488,-0.0179c0,0 0.87065,-0.01317 1.85195,0.59279c0.93242,0.57578 0.91973,1.25006 0.91973,1.25006v42.36355c0,0 0.01269,0.67428 -0.91973,1.25006c-0.98129,0.60596 -1.85195,0.5928 -1.85195,0.5928l-102.65289,0.01772c0,0 -0.87065,0.01316 -1.85195,-0.5928c-0.93242,-0.57578 -0.91973,-1.25006 -0.91973,-1.25006z" data-paper-data="{&quot;origPos&quot;:null}" fill="#6c6c6c" stroke="#a7a7a7" stroke-width="0.5" stroke-linecap="round"/><text transform="translate(191.86087,298.58121) scale(0.23552,0.23552)" font-size="40" xml:space="preserve" data-paper-data="{&quot;origPos&quot;:null}" fill="#ffffff" fill-rule="nonzero" stroke="none" stroke-width="1" stroke-linecap="butt" stroke-linejoin="miter" stroke-miterlimit="10" stroke-dasharray="" stroke-dashoffset="0" font-family="Sans Serif" font-weight="normal" text-anchor="start" style="mix-blend-mode: normal"><tspan x="0" dy="0">spencer's mac pro</tspan></text><text transform="translate(190.33307,316.57847) scale(0.5,0.5)" font-size="40" xml:space="preserve" data-paper-data="{&quot;origPos&quot;:null}" fill="#17ff00" fill-rule="nonzero" stroke="none" stroke-width="1" stroke-linecap="butt" stroke-linejoin="miter" stroke-miterlimit="10" stroke-dasharray="" stroke-dashoffset="0" font-family="Sans Serif" font-weight="normal" text-anchor="start" style="mix-blend-mode: normal"><tspan x="0" dy="0">connected</tspan></text><path d="M186.17394,339.74941c0,0 -0.01269,-0.67428 0.91973,-1.25006c0.98129,-0.60596 1.85195,-0.59279 1.85195,-0.59279l102.69488,-0.0179c0,0 0.87065,-0.01317 1.85195,0.59279c0.93242,0.57578 0.91973,1.25006 0.91973,1.25006v42.36355c0,0 0.01269,0.67428 -0.91973,1.25006c-0.98129,0.60596 -1.85195,0.5928 -1.85195,0.5928l-102.65289,0.01772c0,0 -0.87065,0.01316 -1.85195,-0.5928c-0.93242,-0.57578 -0.91973,-1.25006 -0.91973,-1.25006z" data-paper-data="{&quot;origPos&quot;:null}" fill="#6c6c6c" stroke="#a7a7a7" stroke-width="0.5" stroke-linecap="round"/><text transform="translate(190.46789,349.58804) scale(0.21741,0.21741)" font-size="40" xml:space="preserve" data-paper-data="{&quot;origPos&quot;:null}" fill="#ffffff" fill-rule="nonzero" stroke="none" stroke-width="1" stroke-linecap="butt" stroke-linejoin="miter" stroke-miterlimit="10" stroke-dasharray="" stroke-dashoffset="0" font-family="Sans Serif" font-weight="normal" text-anchor="start" style="mix-blend-mode: normal"><tspan x="0" dy="0">spencer's tesla model X</tspan></text><text transform="translate(190.48917,371.14189) scale(0.4913,0.4913)" font-size="40" xml:space="preserve" data-paper-data="{&quot;origPos&quot;:null}" fill="#17ff00" fill-rule="nonzero" stroke="none" stroke-width="1" stroke-linecap="butt" stroke-linejoin="miter" stroke-miterlimit="10" stroke-dasharray="" stroke-dashoffset="0" font-family="Sans Serif" font-weight="normal" text-anchor="start" style="mix-blend-mode: normal"><tspan x="0" dy="0">connected</tspan></text></g></g></g></g></svg>