<svg version="1.1" xmlns="http://www.w3.org/2000/svg" xmlns:xlink="http://www.w3.org/1999/xlink" width="317.79404" height="200.32702" viewBox="0,0,317.79404,200.32702"><defs><linearGradient x1="151.30178" y1="171.02424" x2="151.30178" y2="189.86149" gradientUnits="userSpaceOnUse" id="color-1"><stop offset="0" stop-color="#bcbea4"/><stop offset="1" stop-color="#837072"/></linearGradient><linearGradient x1="242.3626" y1="170.3928" x2="242.3626" y2="188.95458" gradientUnits="userSpaceOnUse" id="color-2"><stop offset="0" stop-color="#bcbea4"/><stop offset="1" stop-color="#837072"/></linearGradient><linearGradient x1="286.5422" y1="170.64707" x2="286.5422" y2="189.08172" gradientUnits="userSpaceOnUse" id="color-3"><stop offset="0" stop-color="#bcbea4"/><stop offset="1" stop-color="#837072"/></linearGradient><linearGradient x1="330.40395" y1="177.25811" x2="330.40395" y2="188.70031" gradientUnits="userSpaceOnUse" id="color-4"><stop offset="0" stop-color="#bcbea4"/><stop offset="1" stop-color="#837072"/></linearGradient><linearGradient x1="198.24657" y1="170.90133" x2="198.24657" y2="174.58827" gradientUnits="userSpaceOnUse" id="color-5"><stop offset="0" stop-color="#bcbea4"/><stop offset="1" stop-color="#837072"/></linearGradient><linearGradient x1="198.62798" y1="178.2752" x2="198.62798" y2="181.83499" gradientUnits="userSpaceOnUse" id="color-6"><stop offset="0" stop-color="#bcbea4"/><stop offset="1" stop-color="#837072"/></linearGradient><linearGradient x1="198.24657" y1="185.90332" x2="198.24657" y2="189.20885" gradientUnits="userSpaceOnUse" id="color-7"><stop offset="0" stop-color="#bcbea4"/><stop offset="1" stop-color="#837072"/></linearGradient></defs><g transform="translate(-81.10298,-79.83688)"><g data-paper-data="{&quot;isPaintingLayer&quot;:true}" fill="none" fill-rule="nonzero" stroke="none" stroke-width="none" stroke-linecap="round" stroke-linejoin="miter" stroke-miterlimit="10" stroke-dasharray="" stroke-dashoffset="0" font-family="none" font-weight="none" font-size="none" text-anchor="none" style="mix-blend-mode: normal"><path d="M81.35301,88.08698c0,0 -0.03721,-2.9271 2.69612,-5.42663c2.87662,-2.63055 5.42888,-2.57337 5.42888,-2.57337l301.04399,-0.0777c0,0 2.55226,-0.05718 5.42888,2.57337c2.73333,2.49953 2.69612,5.42663 2.69612,5.42663v183.90452c0,0 0.03721,2.9271 -2.69612,5.42663c-2.87662,2.63055 -5.42888,2.57337 -5.42888,2.57337l-300.92092,0.07692c0,0 -2.55227,0.05718 -5.42888,-2.57337c-2.73333,-2.49953 -2.69612,-5.42663 -2.69612,-5.42663z" data-paper-data="{&quot;origPos&quot;:null}" fill="#000000" stroke="#a7a7a7" stroke-width="0.5"/><g data-paper-data="{&quot;origPos&quot;:null}" stroke="#ff0000" stroke-width="0"><path d="M163.6869,171.02423l-3.41147,4.1531l-6.37797,0.14833l0.14833,14.53582h-4.30142v-14.68415l-7.56456,0.14833l-3.26314,-4.00477z" data-paper-data="{&quot;origPos&quot;:null}" fill="url(#color-1)"/><path d="M253.10555,170.51993l-2.54271,4.19547h-14.11204l-0.12713,3.17839l16.40048,0.25428l0.12714,10.80651h-21.23164l3.81407,-3.30552l13.85777,0.12714l-0.12714,-4.06834l-16.65475,-0.25428l-0.12713,-11.06079z" data-paper-data="{&quot;origPos&quot;:null}" fill="url(#color-2)"/><path d="M276.24422,188.95459l-0.25427,-18.30752h4.83115l0.12713,14.49345l16.14621,-0.12714l-3.68693,4.06834z" data-paper-data="{&quot;origPos&quot;:null}" fill="url(#color-3)"/><path d="M322.26728,173.82545l-3.55979,-3.68692h21.99445l-3.30553,3.9412z" data-paper-data="{&quot;origPos&quot;:null}" fill="#bcbea4"/><path d="M319.72456,177.25811l20.97736,0.25428l0.38141,11.06079h-4.32261v-6.99245l-12.45928,-0.12714l-0.12713,7.24673h-4.06834z" data-paper-data="{&quot;origPos&quot;:null}" fill="url(#color-4)"/><path d="M190.3006,174.58827l-3.17839,-3.68693h22.24872l-2.28844,3.68693z" data-paper-data="{&quot;origPos&quot;:null}" fill="url(#color-5)"/><path d="M190.80915,181.70786l-3.55979,-3.30552l22.75726,-0.12714l-2.79698,3.55979z" data-paper-data="{&quot;origPos&quot;:null}" fill="url(#color-6)"/><path d="M190.68201,189.08172l-3.43267,-3.17839h21.99445l-2.92411,3.30553z" data-paper-data="{&quot;origPos&quot;:null}" fill="url(#color-7)"/></g></g></g></svg>