<svg version="1.1" xmlns="http://www.w3.org/2000/svg" xmlns:xlink="http://www.w3.org/1999/xlink" width="116.99654" height="132.35313" viewBox="0,0,116.99654,132.35313"><g transform="translate(-91.21571,-123.76786)"><g data-paper-data="{&quot;isPaintingLayer&quot;:true}" fill-rule="nonzero" stroke="#000000" stroke-width="2" stroke-linecap="butt" stroke-linejoin="miter" stroke-miterlimit="10" stroke-dasharray="" stroke-dashoffset="0" style="mix-blend-mode: normal"><path d="M161.37766,220.90261c9.00939,-6.06673 20.93925,-4.11451 26.64609,4.36041c5.70686,8.47493 3.0296,20.26329 -5.97976,26.33003c-9.00939,6.06673 -20.93925,4.11451 -26.64609,-4.36041c-5.70686,-8.47493 -3.0296,-20.26329 5.97976,-26.33003z" fill="#b5e6ff"/><path d="M117.23747,212.04694c7.32967,-4.93565 17.02261,-3.36628 21.6498,3.50528c4.62717,6.87157 2.43637,16.44322 -4.8933,21.37887c-7.32967,4.93565 -17.02261,3.36628 -21.6498,-3.50528c-4.62717,-6.87157 -2.43637,-16.44322 4.8933,-21.37887z" fill="#6ca9c7"/><path d="M98.73497,182.3106c6.38074,-4.29666 14.67924,-3.13772 18.5352,2.58861c3.85598,5.72631 1.80925,13.85152 -4.57149,18.14819c-6.38074,4.29666 -14.67924,3.13772 -18.5352,-2.58861c-3.85598,-5.72631 -1.80925,-13.85152 4.57149,-18.14819z" fill="#2d6b89"/><path d="M104.90729,144.79972c5.49727,-3.70174 12.70444,-2.61756 16.0977,2.42159c3.39326,5.03914 1.68763,12.12504 -3.80961,15.82677c-5.49727,3.70174 -12.70444,2.61756 -16.0977,-2.42159c-3.39326,-5.03914 -1.68763,-12.12504 3.80961,-15.82677z" fill="#006192"/><path d="M139.16643,126.15078c3.89388,-2.62206 9.30115,-1.40536 12.07746,2.71757c2.77629,4.12294 1.87032,9.59084 -2.02355,12.21292c-3.89388,2.62206 -9.30115,1.40536 -12.07746,-2.71757c-2.77629,-4.12294 -1.87032,-9.59084 2.02355,-12.21292z" fill="#004b70"/><path d="M175.33414,130.3284c3.4358,-2.31359 8.09657,-1.40387 10.41016,2.03191c2.31359,3.4358 1.40387,8.09657 -2.03191,10.41016c-3.4358,2.31359 -8.09657,1.40387 -10.41016,-2.03191c-2.31359,-3.4358 -1.40387,-8.09657 2.03191,-10.41016z" fill="#002030"/><path d="M200.0408,155.08326c2.36687,-1.5938 5.57763,-0.96712 7.17145,1.39976c1.5938,2.36687 0.96712,5.57763 -1.39976,7.17145c-2.36687,1.5938 -5.57763,0.96712 -7.17145,-1.39976c-1.5938,-2.36687 -0.96712,-5.57763 1.39976,-7.17145z" fill="#000000"/></g></g></svg>