<svg version="1.1" xmlns="http://www.w3.org/2000/svg" xmlns:xlink="http://www.w3.org/1999/xlink" width="97.3631" height="112.02801" viewBox="0,0,97.3631,112.02801"><g transform="translate(-191.31845,-123.986)"><g data-paper-data="{&quot;isPaintingLayer&quot;:true}" fill-rule="nonzero" stroke="none" stroke-width="0" stroke-linecap="butt" stroke-linejoin="miter" stroke-miterlimit="10" stroke-dasharray="" stroke-dashoffset="0" style="mix-blend-mode: normal"><g><path d="M215.71575,138.65101c18.9545,0 29.614,0 48.5685,0c9.52133,0 16.9426,7.00291 16.9426,7.00291c0,0 7.4547,7.873 7.4547,17.3943c0,18.8664 0,29.4763 0,48.3427c0,9.6095 -7.4547,16.7166 -7.4547,16.7166c0,0 -7.55894,7.9065 -17.1685,7.9065c-18.9545,0 -29.614,0 -48.5685,0c-9.43317,0 -16.9426,-7.9065 -16.9426,-7.9065c0,0 -7.2288,-6.96939 -7.2288,-16.4907c0,-9.98598 0,-39.4623 0,-48.3427c0,-9.6095 7.68061,-16.7166 7.68061,-16.7166c0,0 7.19528,-7.90651 16.7166,-7.90651z" data-paper-data="{&quot;index&quot;:null}" fill="#4a8f2f"/><path d="M215.71575,123.98601c18.9545,0 29.614,0 48.5685,0c9.52133,0 16.9426,7.00291 16.9426,7.00291c0,0 7.4547,7.873 7.4547,17.3943c0,18.8664 0,29.4763 0,48.3427c0,9.6095 -7.4547,16.7166 -7.4547,16.7166c0,0 -7.55894,7.9065 -17.1685,7.9065c-18.9545,0 -29.614,0 -48.5685,0c-9.43317,0 -16.9426,-7.9065 -16.9426,-7.9065c0,0 -7.2288,-6.96939 -7.2288,-16.4907c0,-9.98598 0,-39.4623 0,-48.3427c0,-9.6095 7.68061,-16.7166 7.68061,-16.7166c0,0 7.19528,-7.90651 16.7166,-7.90651z" data-paper-data="{&quot;index&quot;:null}" fill="#5bb13a"/><path d="M214.72875,152.16501c7.04279,-7.77129 13.7211,-11.6376 24.2087,-11.6376c17.7758,0 32.5905,15.4683 32.5905,33.2441c0,17.7758 -14.8764,32.2197 -32.6522,32.2197c0,0 -10.0282,-1.25959 -10.9201,-2.1644c-0.12705,-0.1289 -8.61618,-2.95177 -9.82644,-4.2776c-0.75534,-0.82745 -2.24567,-1.48762 -2.53026,-2.57121c-0.50634,-1.24763 -0.82357,-1.11635 -0.69808,-2.59043c0,0 3.18838,-7.58213 7.87183,-6.52364c5.24244,1.18482 6.17615,2.05727 11.4444,3.12181c4.14243,0.83704 8.14283,-1.26161 11.9928,-3.00478c9.06134,-4.10288 10.4495,-11.9643 10.4495,-15.5986c0,-6.55001 -1.46098,-10.2787 -5.63359,-14.7316c-6.70407,-7.1543 -24.9448,-1.88772 -28.5755,2.66067c-5.91053,-2.60952 -10.5153,-5.06372 -7.72144,-8.14658z" fill="#ffffff"/><path d="M231.32975,164.70601c-8.74775,1.75612 -19.9961,4.01422 -22.4149,4.49984c-0.80631,0.16186 -1.81198,-0.8508 -1.64938,-1.66082c1.76256,-8.77967 4.04197,-20.1339 4.51633,-22.4969c0.15812,-0.78766 1.22058,-1.20039 1.74249,-0.6769c1.56572,1.57046 11.3265,11.3608 18.576,18.6322c0.50182,0.50334 0.03197,1.54147 -0.77059,1.7026z" data-paper-data="{&quot;origRot&quot;:0}" fill="#ffffff"/></g></g></g></svg>