<svg version="1.1" xmlns="http://www.w3.org/2000/svg" xmlns:xlink="http://www.w3.org/1999/xlink" width="155" height="265.8"><g transform="translate(-162.5,-0.2)"><g data-paper-data="{&quot;isPaintingLayer&quot;:true}" fill="none" fill-rule="nonzero" stroke="none" stroke-width="none" stroke-linecap="none" stroke-linejoin="miter" stroke-miterlimit="10" stroke-dasharray="" stroke-dashoffset="0" font-family="none" font-weight="none" font-size="none" text-anchor="none" style="mix-blend-mode: normal"><path d="M163.5,265v-263.8h153v263.8z" data-paper-data="{&quot;origPos&quot;:null}" fill="#ffffff" stroke="#000000" stroke-width="2" stroke-linecap="butt"/><path d="M261.66667,246c0,15.06515 -15.96851,13 -35.66666,13c-19.69816,0 -35.66667,2.06515 -35.66667,-13c0,-15.06514 15.96851,-13 35.66667,-13c19.69816,0 35.66666,-2.06514 35.66666,13z" data-paper-data="{&quot;origPos&quot;:null}" fill="#ffffff" stroke="#000000" stroke-width="2" stroke-linecap="butt"/><path d="M264.66667,245.83333c0,-6.90356 5.59644,-12.5 12.5,-12.5c6.90356,0 12.5,5.59644 12.5,12.5c0,6.90356 -5.59644,12.5 -12.5,12.5c-6.90356,0 -12.5,-5.59644 -12.5,-12.5z" data-paper-data="{&quot;origPos&quot;:null}" fill="#ffffff" stroke="#000000" stroke-width="2" stroke-linecap="butt"/><g data-paper-data="{&quot;origPos&quot;:null}" stroke="#000000" stroke-width="2"><path d="M280.16666,251.91666h-6.16666" data-paper-data="{&quot;origPos&quot;:null}" fill="none" stroke-linecap="round"/><path d="M282,242.58333c0,0 0.47166,6.33333 -5,6.33333c-4.82123,0 -5,-6.33333 -5,-6.33333" data-paper-data="{&quot;origPos&quot;:null}" fill="none" stroke-linecap="round"/><path d="M277,251.58333v-2" data-paper-data="{&quot;origPos&quot;:null}" fill="none" stroke-linecap="round"/><path d="M279.63587,241.89167c0,2.41625 -0.52603,4.375 -2.56793,4.375c-2.0419,0 -2.56793,-2.52107 -2.56793,-4.375c0,-2.41625 0.52603,-4.375 2.56793,-4.375c2.0419,0 2.56793,1.95875 2.56793,4.375z" data-paper-data="{&quot;origPos&quot;:null}" fill="#000000" stroke-linecap="butt"/></g><path d="M189.66878,57.08252c0,0 -3.13984,2.16801 -5.14949,3.02931c-1.73467,0.74341 -4.44482,1.08254 -4.44482,1.08254c0,0 1.78167,-2.42115 2.65885,-4.1024c0.4066,-0.77932 0.63063,-2.20245 0.63063,-2.20245c0,0 -13.72686,-9.24559 -6.29066,-23.1303c4.38261,-8.18311 19.44853,-9.76445 19.44853,-9.76445c0,0 70.10498,-7.18916 69.25896,15.86038c-3.52092,27.34132 -68.24939,19.82277 -71.82372,19.96941c-3.57432,0.14664 -4.28833,-0.74208 -4.28833,-0.74208z" data-paper-data="{&quot;origPos&quot;:null,&quot;index&quot;:null}" fill="#b9b9b9" stroke="#000000" stroke-width="0" stroke-linecap="round"/><text transform="translate(195,44.9) scale(0.5,0.5)" font-size="40" xml:space="preserve" data-paper-data="{&quot;origPos&quot;:null}" fill="#ffffff" fill-rule="nonzero" stroke="none" stroke-width="1" stroke-linecap="butt" stroke-linejoin="miter" stroke-miterlimit="10" stroke-dasharray="" stroke-dashoffset="0" font-family="Sans Serif" font-weight="normal" text-anchor="start" style="mix-blend-mode: normal"><tspan x="0" dy="0">hello.</tspan></text><path d="M295.48448,99.08249c0,0 -0.71401,0.88873 -4.28833,0.74209c-3.57433,-0.14664 -68.3028,7.37192 -71.82371,-19.96941c-0.84602,-23.04954 69.25896,-15.86038 69.25896,-15.86038c0,0 15.06593,1.58134 19.44853,9.76445c7.4362,13.88471 -6.29066,23.1303 -6.29066,23.1303c0,0 0.22404,1.42312 0.63063,2.20245c0.87719,1.68124 2.65885,4.1024 2.65885,4.1024c0,0 -2.71015,-0.33913 -4.44482,-1.08254c-2.00965,-0.86131 -5.14949,-3.02932 -5.14949,-3.02932z" data-paper-data="{&quot;origPos&quot;:null,&quot;index&quot;:null}" fill="#009bff" stroke="#000000" stroke-width="0" stroke-linecap="round"/><text transform="translate(236.78602,85.1315) scale(0.30659,0.30659)" font-size="40" xml:space="preserve" data-paper-data="{&quot;origPos&quot;:null}" fill="#ffffff" fill-rule="nonzero" stroke="none" stroke-width="1" stroke-linecap="butt" stroke-linejoin="miter" stroke-miterlimit="10" stroke-dasharray="" stroke-dashoffset="0" font-family="Sans Serif" font-weight="normal" text-anchor="start" style="mix-blend-mode: normal"><tspan x="0" dy="0">whats up?</tspan></text><path d="M190.16878,141.58252c0,0 -3.13984,2.16801 -5.14948,3.02931c-1.73467,0.74341 -4.44482,1.08254 -4.44482,1.08254c0,0 1.78166,-2.42115 2.65885,-4.1024c0.40659,-0.77932 0.63063,-2.20245 0.63063,-2.20245c0,0 -13.72686,-9.24559 -6.29066,-23.1303c4.38261,-8.18311 19.44853,-9.76444 19.44853,-9.76444c0,0 70.10498,-7.18917 69.25896,15.86038c-3.52091,27.34133 -68.24939,19.82277 -71.82371,19.96941c-3.57432,0.14664 -4.28833,-0.74208 -4.28833,-0.74208z" data-paper-data="{&quot;origPos&quot;:null,&quot;index&quot;:null}" fill="#b9b9b9" stroke="#000000" stroke-width="0" stroke-linecap="round"/><text transform="translate(179.57327,126.12549) scale(0.22043,0.22043)" font-size="40" xml:space="preserve" data-paper-data="{&quot;origPos&quot;:null,&quot;index&quot;:null}" fill="#ffffff" fill-rule="nonzero" stroke="none" stroke-width="1" stroke-linecap="butt" stroke-linejoin="miter" stroke-miterlimit="10" stroke-dasharray="" stroke-dashoffset="0" font-family="Sans Serif" font-weight="normal" text-anchor="start" style="mix-blend-mode: normal"><tspan x="0" dy="0">nothing much, you?</tspan></text><g data-paper-data="{&quot;origPos&quot;:null}"><path d="M192.16877,224.08252c0,0 -3.13983,2.16801 -5.14948,3.02932c-1.73466,0.74341 -4.44482,1.08254 -4.44482,1.08254c0,0 1.78166,-2.42116 2.65885,-4.1024c0.40659,-0.77932 0.63064,-2.20245 0.63064,-2.20245c0,0 -13.72687,-9.24559 -6.29066,-23.1303c4.3826,-8.18311 19.44853,-9.76444 19.44853,-9.76444c0,0 70.10499,-7.18916 69.25896,15.86038c-3.52092,27.34133 -68.24939,19.82277 -71.82372,19.96941c-3.57433,0.14664 -4.28833,-0.74208 -4.28833,-0.74208z" data-paper-data="{&quot;origPos&quot;:null,&quot;index&quot;:null}" fill="#b9b9b9" stroke="#000000" stroke-width="0" stroke-linecap="round"/><text transform="translate(193,212.59693) scale(0.42515,0.42515)" font-size="40" xml:space="preserve" data-paper-data="{&quot;origPos&quot;:null}" fill="#ffffff" fill-rule="nonzero" stroke="none" stroke-width="1" stroke-linecap="butt" stroke-linejoin="miter" stroke-miterlimit="10" stroke-dasharray="" stroke-dashoffset="0" font-family="Sans Serif" font-weight="normal" text-anchor="start" style="mix-blend-mode: normal"><tspan x="0" dy="0">ok, bye!</tspan></text></g><g data-paper-data="{&quot;origPos&quot;:null}"><path d="M290.98448,182.58249c0,0 -0.71401,0.88872 -4.28833,0.74209c-3.57432,-0.14664 -68.3028,7.37192 -71.82371,-19.96941c-0.84602,-23.04954 69.25896,-15.86038 69.25896,-15.86038c0,0 15.06593,1.58133 19.44853,9.76444c7.4362,13.88471 -6.29066,23.1303 -6.29066,23.1303c0,0 0.22404,1.42312 0.63064,2.20245c0.87718,1.68124 2.65885,4.1024 2.65885,4.1024c0,0 -2.71015,-0.33913 -4.44482,-1.08254c-2.00965,-0.8613 -5.14949,-3.02932 -5.14949,-3.02932z" data-paper-data="{&quot;origPos&quot;:null,&quot;index&quot;:null}" fill="#009bff" stroke="#000000" stroke-width="0" stroke-linecap="round"/><text transform="translate(224.95873,168.78922) scale(0.16216,0.16216)" font-size="40" xml:space="preserve" data-paper-data="{&quot;origPos&quot;:null,&quot;index&quot;:null}" fill="#ffffff" fill-rule="nonzero" stroke="none" stroke-width="1" stroke-linecap="butt" stroke-linejoin="miter" stroke-miterlimit="10" stroke-dasharray="" stroke-dashoffset="0" font-family="Sans Serif" font-weight="normal" text-anchor="start" style="mix-blend-mode: normal"><tspan x="0" dy="0">super charging my car.</tspan></text></g></g></g></svg>